<svg width="95" height="95" viewBox="0 0 95 95" fill="none" xmlns="http://www.w3.org/2000/svg">
<path d="M92.8889 90.6578H89.7222V41.0925C89.7222 38.7626 87.8222 36.8562 85.5 36.8562H72.9389C70.6167 36.8562 68.7167 38.7626 68.7167 41.0925V90.6578H58.1611V51.6834C58.1611 49.3534 56.2611 47.4471 53.9389 47.4471H41.3778C39.0555 47.4471 37.1555 49.3534 37.1555 51.6834V90.7637H26.6V63.3333C26.6 61.0034 24.7 59.097 22.3778 59.097H9.81665C7.49443 59.097 5.59443 61.0034 5.59443 63.3333V90.7637H2.42776C1.26665 90.7637 0.31665 91.7169 0.31665 92.8819C0.31665 94.0468 1.26665 95 2.42776 95H92.8889C94.05 95 95 94.0468 95 92.8819C95 91.7169 94.05 90.6578 92.8889 90.6578ZM9.81665 63.3333H22.3778V90.7637H9.81665V63.3333ZM41.3778 51.6834H53.9389V90.7637H41.3778V51.6834ZM72.9389 90.6578V41.0925H85.5V90.6578H72.9389Z" fill="#FF809F"/>
<path d="M95 2.11817V14.8272C95 15.9922 94.05 16.9454 92.8889 16.9454C91.7278 16.9454 90.7778 15.9922 90.7778 14.8272V7.20178L62.7 35.3735C62.5944 35.4794 62.4889 35.5853 62.3833 35.5853C62.2778 35.6912 62.0667 35.7971 61.8556 35.7971H61.75C61.5389 35.7971 61.4333 35.903 61.2222 35.903C61.1167 35.903 60.9056 35.903 60.8 35.903C60.6944 35.903 60.6945 35.903 60.5889 35.903C60.4833 35.903 60.4833 35.903 60.3778 35.7971L33.1444 24.9944L26.3889 31.7726C25.9667 32.1962 25.4389 32.408 24.9111 32.408C24.3833 32.408 23.8556 32.1962 23.4333 31.7726C22.5889 30.9253 22.5889 29.6544 23.4333 28.8071L31.1389 21.0758L31.2444 20.9699C31.35 20.864 31.35 20.864 31.4556 20.7581C31.5611 20.7581 31.5611 20.6522 31.6667 20.6522L31.7722 20.5463C31.8778 20.5463 31.8778 20.5463 31.9833 20.4404C32.0889 20.4404 32.0889 20.4404 32.1944 20.4404C32.3 20.4404 32.3 20.4404 32.4056 20.4404C32.5111 20.4404 32.5111 20.4404 32.6167 20.4404C32.7222 20.4404 32.7222 20.4404 32.8278 20.4404C32.9333 20.4404 32.9333 20.4404 33.0389 20.4404C33.1444 20.4404 33.25 20.4404 33.3556 20.5463H33.4611L60.6944 31.4549L87.8222 4.23634H80.2222C79.0611 4.23634 78.1111 3.28317 78.1111 2.11817C78.1111 0.953177 79.0611 0 80.2222 0H92.8889C94.05 0 95 0.847269 95 2.11817ZM0.633333 53.8016C-0.211111 52.9543 -0.211111 51.6834 0.633333 50.8361L9.71111 41.728C10.5556 40.8807 11.8222 40.8807 12.6667 41.728C13.5111 42.5752 13.5111 43.8462 12.6667 44.6934L3.58889 53.8016C3.16667 54.2252 2.63889 54.437 2.11111 54.437C1.58333 54.437 1.05556 54.2252 0.633333 53.8016ZM15.3056 39.7157C14.4611 38.8685 14.4611 37.5975 15.3056 36.7503L18.05 33.9967C18.8944 33.1494 20.1611 33.1494 21.0056 33.9967C21.85 34.8439 21.85 36.1148 21.0056 36.9621L18.2611 39.7157C17.8389 40.1394 17.3111 40.3512 16.7833 40.3512C16.2556 40.3512 15.7278 40.1394 15.3056 39.7157Z" fill="#482AA4"/>
</svg>
