<svg width="97" height="97" viewBox="0 0 97 97" fill="none" xmlns="http://www.w3.org/2000/svg">
<path d="M16.9394 84.4689H24.1658V82.6593H33.1713L53.3788 93.9676L92.8072 71.4685C95.2816 70.0634 96.3315 67.121 95.3036 64.4699C94.2249 61.7047 91.1532 60.2124 88.314 61.0717L57.8006 70.0203L46.8575 57.8448H24.1658V54.3983H16.9394V49.9448H1V51.9267H14.9391C14.9391 62.108 14.9391 76.7608 14.9391 86.9406H1V88.9225H16.9394V84.4689ZM24.1658 59.8267H45.9599L56.7273 71.8125L57.388 72.5407C58.6967 73.974 58.641 76.1678 57.2605 77.5356C55.8297 78.9534 53.5008 78.9529 52.069 77.5351L44.3464 69.8954L42.9331 71.2976L50.6553 78.9368C52.865 81.1264 56.4645 81.1277 58.6748 78.9368C60.6724 76.9576 60.8516 73.8713 59.2129 71.667L88.8904 62.9698C90.7363 62.4114 92.7355 63.3825 93.4373 65.1825C94.1083 66.9128 93.4251 68.8333 91.8111 69.7497L53.369 91.6858L33.6968 80.6775H24.1658V59.8267ZM16.9394 56.3802H22.1656V82.487H16.9394V56.3802Z" fill="#FF809F" stroke="#FF809F"/>
<path d="M12.353 78.8821C12.353 76.7594 10.6103 75.0325 8.46866 75.0325C6.32656 75.0325 4.58386 76.7594 4.58386 78.8821C4.58386 81.0043 6.32656 82.7313 8.46866 82.7313C10.6104 82.7313 12.353 81.0043 12.353 78.8821ZM6.58396 78.8821C6.58396 77.8524 7.42966 77.0144 8.46876 77.0144C9.50786 77.0144 10.3531 77.8524 10.3531 78.8821C10.3531 79.9118 9.50786 80.7494 8.46876 80.7494C7.42966 80.7494 6.58396 79.9118 6.58396 78.8821Z" fill="#FF809F" stroke="#FF809F"/>
<path d="M39.3971 90.9728L48.225 96L49.2219 94.2815L40.394 89.2543L39.3971 90.9728Z" fill="#FF809F" stroke="#FF809F"/>
<path d="M36.1445 86.8289L35.1484 88.5476L37.7354 90.0196L38.7315 88.3009L36.1445 86.8289Z" fill="#FF809F" stroke="#FF809F"/>
<path d="M44.3103 53.5776H33.9619V55.5595H44.3103V53.5776Z" fill="#FF809F" stroke="#FF809F"/>
<path d="M31.6854 53.5776H28.6195V55.5595H31.6854V53.5776Z" fill="#FF809F" stroke="#FF809F"/>
<path d="M70.8099 90.004L69.7502 88.3232L66.1702 90.5391L67.2299 92.2199L70.8099 90.004Z" fill="#FF809F" stroke="#FF809F"/>
<path d="M88.8784 76.4831L72.1228 86.8491L73.1821 88.5302L89.9378 78.1642L88.8784 76.4831Z" fill="#FF809F" stroke="#FF809F"/>
<path d="M55.2941 39.3578L54.1427 37.7369C53.3927 38.26 52.6808 38.8484 52.0265 39.4861L53.4288 40.899C54.0055 40.3372 54.633 39.8189 55.2941 39.3578Z" fill="#FF809F" stroke="#FF809F"/>
<path d="M47.0464 51.2458H49.0464C49.0464 48.0083 50.1026 44.943 52.1011 42.3815L50.5191 41.1689C48.2471 44.0813 47.0464 47.5655 47.0464 51.2458Z" fill="#FF809F" stroke="#FF809F"/>
<path d="M63.7037 63.7997C70.6899 63.7997 76.3737 58.168 76.3737 51.2458C76.3737 44.3232 70.6899 38.6915 63.7037 38.6915C56.7171 38.6915 51.0333 44.3232 51.0333 51.2458C51.0333 58.168 56.7171 63.7997 63.7037 63.7997ZM63.7037 40.6734C69.5872 40.6734 74.3735 45.4162 74.3735 51.2458C74.3735 57.0754 69.5873 61.8178 63.7037 61.8178C57.8201 61.8178 53.0336 57.0755 53.0336 51.2459C53.0336 45.4163 57.8202 40.6734 63.7037 40.6734Z" fill="#482AA4" stroke="#482AA4"/>
<path d="M95.7462 19.0646C93.9737 17.1006 91.7311 15.5677 89.2604 14.6315L88.5465 16.4828C90.7203 17.3064 92.6944 18.6563 94.255 20.3856L95.7462 19.0646Z" fill="#FF809F" stroke="#FF809F"/>
<path d="M86.6308 13.8765C85.5522 13.6602 84.4418 13.5509 83.33 13.5509V15.5328C84.309 15.5328 85.2861 15.6291 86.2343 15.8188L86.6308 13.8765Z" fill="#FF809F" stroke="#FF809F"/>
<path d="M83.33 42.6093C90.3162 42.6093 96 36.9776 96 30.055C96 23.1324 90.3162 17.5007 83.33 17.5007C76.3434 17.5007 70.6596 23.1324 70.6596 30.055C70.6596 36.9776 76.3434 42.6093 83.33 42.6093ZM83.33 19.4825C89.2135 19.4825 93.9998 24.2253 93.9998 30.0549C93.9998 35.8845 89.2136 40.6273 83.33 40.6273C77.4464 40.6273 72.6598 35.8846 72.6598 30.055C72.6598 24.2254 77.4465 19.4825 83.33 19.4825Z" fill="#482AA4" stroke="#482AA4"/>
<path d="M44.9815 16.5576C44.7725 15.5772 44.6666 14.567 44.6666 13.5542H42.6666C42.6666 14.7043 42.7872 15.8525 43.0245 16.9668L44.9815 16.5576Z" fill="#FF809F" stroke="#FF809F"/>
<path d="M51.5651 28.1568L52.4998 26.4042C49.2699 24.7136 46.8028 21.9164 45.5522 18.5283L43.6741 19.2086C45.0946 23.0583 47.8972 26.2364 51.5651 28.1568Z" fill="#FF809F" stroke="#FF809F"/>
<path d="M59.3233 26.1082C66.3099 26.1082 71.9936 20.4765 71.9936 13.5539C71.9936 6.63169 66.3099 1 59.3233 1C52.337 1 46.6533 6.63169 46.6533 13.5539C46.6534 20.4765 52.3371 26.1082 59.3233 26.1082ZM59.3233 2.98191C65.2067 2.98191 69.9934 7.72421 69.9934 13.5539C69.9934 19.3836 65.2067 24.1263 59.3233 24.1263C53.4398 24.1263 48.6535 19.3835 48.6535 13.5539C48.6535 7.72431 53.4398 2.98191 59.3233 2.98191Z" fill="#482AA4" stroke="#482AA4"/>
<path d="M13.9175 45.7573H7.62311V47.7392H13.9175V45.7573Z" fill="#FF809F" stroke="#FF809F"/>
<path d="M5.91111 45.7573H3.63721V47.7392H5.91111V45.7573Z" fill="#FF809F" stroke="#FF809F"/>
<path d="M58.8834 12.829V18H57V7H60.5659C61.2523 7 61.855 7.12363 62.374 7.37088C62.8972 7.61813 63.299 7.97047 63.5794 8.42788C63.8598 8.88118 64 9.39835 64 9.9794C64 10.8613 63.6924 11.5577 63.0771 12.0687C62.4661 12.5756 61.6185 12.829 60.5345 12.829H58.8834ZM58.8834 11.3269H60.5659C61.064 11.3269 61.4427 11.2115 61.7022 10.9808C61.9659 10.75 62.0978 10.4203 62.0978 9.99176C62.0978 9.55082 61.9659 9.19437 61.7022 8.92239C61.4386 8.65041 61.0744 8.5103 60.6099 8.50206H58.8834V11.3269Z" fill="#FF809F"/>
<rect x="58" y="14" width="4" height="1.5" fill="#FF809F"/>
<path d="M82.8834 29.829V35H81V24H84.5659C85.2523 24 85.855 24.1236 86.374 24.3709C86.8972 24.6181 87.299 24.9705 87.5794 25.4279C87.8598 25.8812 88 26.3984 88 26.9794C88 27.8613 87.6924 28.5577 87.0771 29.0687C86.4661 29.5756 85.6185 29.829 84.5345 29.829H82.8834ZM82.8834 28.3269H84.5659C85.064 28.3269 85.4427 28.2115 85.7022 27.9808C85.9659 27.75 86.0978 27.4203 86.0978 26.9918C86.0978 26.5508 85.9659 26.1944 85.7022 25.9224C85.4386 25.6504 85.0744 25.5103 84.6099 25.5021H82.8834V28.3269Z" fill="#FF809F"/>
<rect x="82" y="31" width="4" height="1.5" fill="#FF809F"/>
<path d="M62.8834 51.829V57H61V46H64.5659C65.2523 46 65.855 46.1236 66.374 46.3709C66.8972 46.6181 67.299 46.9705 67.5794 47.4279C67.8598 47.8812 68 48.3984 68 48.9794C68 49.8613 67.6924 50.5577 67.0771 51.0687C66.4661 51.5756 65.6185 51.829 64.5345 51.829H62.8834ZM62.8834 50.3269H64.5659C65.064 50.3269 65.4427 50.2115 65.7022 49.9808C65.9659 49.75 66.0978 49.4203 66.0978 48.9918C66.0978 48.5508 65.9659 48.1944 65.7022 47.9224C65.4386 47.6504 65.0744 47.5103 64.6099 47.5021H62.8834V50.3269Z" fill="#FF809F"/>
<rect x="62" y="53" width="4" height="1.5" fill="#FF809F"/>
</svg>
