<svg width="95" height="95" viewBox="0 0 95 95" fill="none" xmlns="http://www.w3.org/2000/svg">
<path d="M10.6448 20.5139C13.5545 22.1484 16.8 23.0878 20.1296 23.2591C21.1217 23.3741 22.126 23.2069 23.0281 22.7765C23.9301 22.3462 24.6937 21.67 25.2316 20.8251L28.2736 15.0285C28.8135 13.9999 29.3338 11.7953 26.7534 8.5948C24.8051 6.32987 22.4333 4.47068 19.7724 3.12251C17.1613 1.68164 14.2941 0.769024 11.3331 0.436324C7.24238 0.10874 5.7271 1.78269 5.18721 2.81294L2.1436 8.6079C0.147149 12.4144 4.90992 17.4772 10.6448 20.5139ZM8.07423 4.33948C8.25528 3.99388 9.03005 3.67121 10.3414 3.67121C10.5682 3.67121 10.8112 3.68104 11.0722 3.70233C13.591 4.00667 16.0277 4.79581 18.249 6.02654C20.5167 7.17186 22.5431 8.74572 24.2171 10.6618C25.3246 12.0361 25.5986 13.0991 25.385 13.5069C25.1713 13.9148 24.1404 14.2882 22.3887 14.1457C19.87 13.841 17.4333 13.0518 15.2119 11.8215C12.944 10.6749 10.9172 9.10063 9.24209 7.18455C8.12806 5.80378 7.8524 4.76043 8.07423 4.33948ZM5.03062 10.1361L6.00927 8.27376C6.22594 8.60977 6.45949 8.9345 6.70901 9.24669C8.65697 11.512 11.0288 13.3712 13.6901 14.719C16.3006 16.1621 19.1679 17.0764 22.1293 17.4101C22.4865 17.4396 22.8242 17.4527 23.1422 17.4527C23.2075 17.4527 23.2597 17.4527 23.3233 17.4428L22.3446 19.3019C21.8096 20.3239 17.5362 20.4599 12.1666 17.6164C6.79709 14.773 4.494 11.1581 5.03062 10.1361Z" fill="#482AA4"/>
<path d="M74.2442 75.4138C70.266 76.4211 69.3656 78.498 69.1878 79.6462L68.1586 86.116C67.9759 87.2625 68.1863 89.5196 71.6524 91.7193C74.2218 93.2374 77.0631 94.2341 80.015 94.6528C81.4255 94.8801 82.8517 94.9962 84.2803 95C89.1523 95 93.4013 93.5505 93.9249 90.2501L94.9541 83.7803C95.1368 82.6338 94.9247 80.3751 91.457 78.177C86.2333 75.2179 80.126 74.2381 74.2442 75.4154V75.4138ZM90.7051 89.7325C90.5241 90.879 86.5197 92.3761 80.5255 91.4179C78.0146 91.0609 75.5954 90.2229 73.3993 88.9496C71.9036 88.0012 71.3099 87.102 71.3849 86.6336L71.7111 84.5534C72.0251 84.8022 72.3518 85.0346 72.6898 85.2495C75.2587 86.767 78.0995 87.7632 81.0507 88.1814C82.4622 88.4102 83.8895 88.5269 85.3193 88.5303C87.2631 88.5627 89.1985 88.2665 91.0444 87.654L90.7051 89.7325ZM91.7327 83.2611C91.5516 84.4076 87.549 85.9112 81.5547 84.9481C79.0412 84.5933 76.6195 83.7553 74.422 82.4798C72.9328 81.5364 72.3325 80.6175 72.4043 80.1638C72.4761 79.7101 73.3242 79.0172 75.0402 78.5914C76.2904 78.2981 77.5714 78.1579 78.8553 78.1737C80.1042 78.1771 81.3509 78.279 82.5839 78.4784C85.0952 78.8329 87.5147 79.6705 89.7101 80.9451C91.2124 81.8967 91.8077 82.7926 91.7327 83.2611Z" fill="#482AA4"/>
<path d="M59.2088 73.2746C57.4603 69.3436 50.5526 69.984 44.635 72.6391C38.7175 75.2941 33.635 80.0392 35.3819 83.9653L38.0438 89.9486C38.507 90.992 39.8723 92.7216 43.8113 92.7216H44.0201C46.9971 92.584 49.9182 91.8605 52.6176 90.5923C58.5384 87.9372 63.6176 83.1938 61.8707 79.2661L60.3816 79.9327L61.8707 79.2645L59.2088 73.2746ZM38.3668 82.6304C37.897 81.5756 40.4285 78.1163 45.9709 75.6299C48.3203 74.5069 50.8736 73.8781 53.4739 73.7824C55.0267 73.7824 56.0282 74.1312 56.2468 74.6111C56.7149 75.666 54.1834 79.1236 48.6426 81.61C43.1018 84.0963 38.8365 83.6836 38.3668 82.6304ZM51.2948 87.5933C48.9963 88.6766 46.5114 89.305 43.9761 89.4441C42.2047 89.4752 41.2163 89.0314 41.0287 88.6121L40.1838 86.7154C40.4856 86.7399 40.7955 86.753 41.1119 86.753C44.176 86.641 47.1861 85.9095 49.9622 84.6024C53.0847 83.3005 55.8576 81.2775 58.0556 78.6977L58.8989 80.5945C59.3719 81.6493 56.8356 85.1069 51.2948 87.5933Z" fill="#482AA4"/>
<path d="M0.0917095 35.0849L12.9528 72.2116C13.0949 72.6219 13.3935 72.9587 13.7829 73.1479C14.1723 73.3371 14.6206 73.3632 15.0292 73.2205L17.6031 72.3213L22.6855 79.6821C22.9318 80.0388 23.3091 80.2826 23.7343 80.3602C23.83 80.3784 23.9272 80.3877 24.0247 80.3881C24.3571 80.3877 24.6815 80.2855 24.9544 80.0949L54.738 59.349L88.9745 47.3922C89.3831 47.2495 89.7185 46.9496 89.9069 46.5586C90.0954 46.1676 90.1214 45.7174 89.9793 45.3071L77.1165 8.17552C76.9744 7.76522 76.6758 7.42842 76.2864 7.23921C75.897 7.04999 75.4487 7.02386 75.0402 7.16656L72.4679 8.06577L67.3855 0.70497C67.2634 0.528112 67.1079 0.377137 66.9277 0.26067C66.7475 0.144204 66.5462 0.0645289 66.3354 0.0261978C66.1245 -0.0121332 65.9082 -0.00836883 65.6988 0.0372754C65.4894 0.0829197 65.291 0.169549 65.115 0.292215L35.3313 21.0397L1.09483 32.9965C0.892289 33.0673 0.705643 33.1776 0.545572 33.3209C0.385501 33.4642 0.255149 33.6378 0.161976 33.8318C0.0688023 34.0258 0.014637 34.2363 0.00257986 34.4513C-0.00947729 34.6663 0.0208104 34.8816 0.0917095 35.0849ZM24.4357 76.4702L20.8016 71.2042L43.2568 63.3603L24.4357 76.4702ZM65.6337 3.91857L69.2694 9.18283L46.8126 17.035L65.6337 3.91857ZM74.572 10.7978L86.3632 44.8321L15.4957 69.5893L3.70783 35.555L74.572 10.7978Z" fill="#FF809F"/>
<path d="M18.5132 64.972C18.6954 64.9717 18.8762 64.9407 19.0482 64.8803L80.669 43.3532C81.0776 43.2105 81.413 42.9106 81.6014 42.5196C81.7899 42.1286 81.8159 41.6784 81.6738 41.2681L73.0975 16.5159C72.9551 16.1059 72.6563 15.7695 72.267 15.5806C71.8776 15.3917 71.4295 15.3658 71.0211 15.5086L9.40194 37.0357C8.99336 37.1784 8.65796 37.4783 8.46954 37.8693C8.28111 38.2603 8.25509 38.7105 8.39719 39.1208L16.9718 63.8796C17.0844 64.1996 17.2931 64.4766 17.5692 64.6723C17.8454 64.868 18.1752 64.9728 18.5132 64.972ZM70.553 19.1398L78.056 40.798L19.5163 61.2491L12.0133 39.5909L70.553 19.1398Z" fill="#FF809F"/>
<path d="M45.0429 48.3848C46.7719 48.3833 48.4558 47.83 49.8513 46.8048C51.2468 45.7795 52.2817 44.3354 52.8065 42.681C53.3313 41.0266 53.319 39.2475 52.7712 37.6006C52.2234 35.9538 51.1685 34.5243 49.7589 33.5188C48.3493 32.5132 46.6579 31.9836 44.929 32.0063C43.2 32.0291 41.523 32.603 40.1402 33.6453C38.7573 34.6877 37.7401 36.1444 37.2355 37.8051C36.7308 39.4658 36.7649 41.2446 37.3327 42.8847C37.8862 44.4944 38.927 45.89 40.3095 46.8762C41.692 47.8624 43.347 48.3899 45.0429 48.3848ZM43.4281 35.5533C44.3422 35.2341 45.33 35.1942 46.2667 35.4387C47.2033 35.6832 48.0468 36.2012 48.6903 36.927C49.3338 37.6529 49.7485 38.5541 49.882 39.5167C50.0155 40.4792 49.8618 41.4599 49.4402 42.3347C49.0187 43.2095 48.3482 43.9392 47.5137 44.4314C46.6792 44.9236 45.7181 45.1562 44.752 45.0999C43.7858 45.0436 42.858 44.7008 42.0858 44.115C41.3136 43.5291 40.7318 42.7265 40.4138 41.8086C40.1973 41.1994 40.1037 40.5531 40.1385 39.9073C40.1732 39.2615 40.3355 38.6291 40.6161 38.0469C40.8966 37.4647 41.2897 36.9444 41.7725 36.5163C42.2553 36.0882 42.8181 35.7609 43.4281 35.5533Z" fill="#FF809F"/>
<path d="M76.6614 57.3279H73.3993V65.5175H76.6614V57.3279Z" fill="#FF809F"/>
<path d="M83.1858 54.052H79.9236V68.7933H83.1858V54.052Z" fill="#FF809F"/>
<path d="M3.26254 18.0178H0.000366211V27.8453H3.26254V18.0178Z" fill="#FF809F"/>
<path d="M9.78686 22.9315H6.52469V26.2074H9.78686V22.9315Z" fill="#FF809F"/>
</svg>
