<svg width="124" height="38" viewBox="0 0 124 38" fill="none" xmlns="http://www.w3.org/2000/svg">
<path opacity="0.5" fill-rule="evenodd" clip-rule="evenodd" d="M17.4287 1.9535C9.66255 1.9535 3.36717 8.18077 3.36717 15.863C3.36717 18.8361 4.31019 21.5906 5.91631 23.8506C2.35186 21.5273 0 17.5324 0 12.995C0 5.8186 5.88119 0 13.1351 0C15.9156 0 18.4916 0.855165 20.6152 2.31211C19.5916 2.07712 18.5246 1.9535 17.4287 1.9535ZM24.3816 6.27582C25.3298 7.85538 25.9206 9.43289 26.1695 11.3659C24.5407 10.6191 22.7218 10.287 20.8089 10.287C13.7657 10.287 8.056 15.935 8.056 22.901C8.056 23.4179 8.08802 23.9278 8.14896 24.4284C7.12125 22.5822 6.53561 20.4611 6.53561 18.2052C6.53561 11.0717 12.3817 5.28988 19.5932 5.28988C21.2334 5.28988 22.9356 5.73023 24.3816 6.27582ZM24.3815 19.7126C23.4436 19.3295 22.4242 19.0975 21.3521 19.0495C17.2712 18.8677 13.7026 21.4035 12.4353 25.0398C12.4218 24.7281 12.4208 24.4135 12.4353 24.0957C12.6986 18.3394 17.6285 13.8838 23.4488 14.1443C24.3949 14.1862 25.3038 14.3814 26.1653 14.6511C25.9329 16.4973 25.3121 18.1923 24.3815 19.7126Z" fill="#1D1F8E"/>
<path fill-rule="evenodd" clip-rule="evenodd" d="M17.4287 24.0355C9.66255 24.0355 3.36717 17.8082 3.36717 10.126C3.36717 7.1539 4.31019 4.39837 5.91631 2.13836C2.35186 4.46171 0 8.45657 0 12.9939C0 20.1704 5.88119 25.989 13.1351 25.989C15.9156 25.989 18.4916 25.1338 20.6152 23.6769C19.5916 23.9119 18.5246 24.0355 17.4287 24.0355ZM24.284 19.8693C25.2631 18.3184 25.9221 16.5498 26.1659 14.6525C24.567 15.3851 22.7863 15.7948 20.9085 15.7948C13.9976 15.7948 8.76811 10.2521 8.76811 3.41584C8.76811 2.90908 8.80013 2.40946 8.86004 1.91802C7.85092 3.7295 7.27664 5.81071 7.27664 8.02372C7.27664 15.0244 12.6393 20.7 19.7166 20.7C21.3258 20.7 22.8648 20.4047 24.284 19.8693ZM24.3815 6.27622C23.4436 6.65936 22.4242 6.89129 21.3521 6.93931C17.2712 7.12117 13.7026 4.5853 12.4353 0.949066C12.4218 1.26069 12.4208 1.57537 12.4353 1.89312C12.6986 7.64939 17.6285 12.105 23.4488 11.8445C24.3949 11.8026 25.3069 11.6371 26.1694 11.3663C25.936 9.52217 25.3121 7.79754 24.3815 6.27622Z" fill="#1D1F8E"/>
<path fill-rule="evenodd" clip-rule="evenodd" d="M41.2945 20.8069H45.9341C47.0948 20.8069 48.3803 20.8069 49.2904 20.2795C50.5135 19.5672 50.7018 18.3583 50.7018 17.4576C50.7018 16.5593 50.5135 15.3504 49.2904 14.6381C48.3803 14.1107 47.0948 14.1107 45.9017 14.1107H41.2945V20.8069ZM52.6236 2.4522V5.73867H41.2945V10.9475H45.9017C48.162 10.9475 50.5135 10.855 52.4273 12.0947C53.5257 12.8082 55.1865 14.4508 55.1865 17.5512C55.1865 20.4964 53.7763 22.1402 52.4273 22.9769C50.4511 24.2178 47.7531 24.1561 46.09 24.1561H36.9345V2.4522H52.6236Z" fill="#1D1F8E"/>
<path fill-rule="evenodd" clip-rule="evenodd" d="M68.9975 2.45304V10.4232H72.0235L77.5881 2.45304H82.6423L75.8037 12.6218L82.7058 24.157H77.5616L72.0235 14.7257H68.9975V24.157H64.6375V2.45304H68.9975Z" fill="#1D1F8E"/>
<path fill-rule="evenodd" clip-rule="evenodd" d="M109.183 17.9044C107.957 19.6155 106.017 20.7137 103.628 20.7137C99.4586 20.7137 96.6382 17.3724 96.6382 13.2526C96.6382 9.13169 99.4586 5.79157 103.628 5.79157C106.01 5.79157 107.946 6.88287 109.173 8.58375L114.487 9.33716C112.87 4.95254 108.614 1.82246 103.619 1.82246C97.2318 1.82246 92.0541 6.94109 92.0541 13.2526C92.0541 19.5653 97.2318 24.6828 103.619 24.6828C108.619 24.6828 112.879 21.5447 114.492 17.1521L109.183 17.9044Z" fill="#1D1F8E"/>
<path fill-rule="evenodd" clip-rule="evenodd" d="M89.8157 25.8865H90.5006V1.04541e-10H89.8157V25.8865Z" fill="#1D1F8E"/>
<path fill-rule="evenodd" clip-rule="evenodd" d="M61.2653 25.8865H61.9478V1.04541e-10H61.2653V25.8865Z" fill="#1D1F8E"/>
<path fill-rule="evenodd" clip-rule="evenodd" d="M32.7119 25.8866H33.3957V0.00012207H32.7119V25.8866Z" fill="#1D1F8E"/>
<path d="M3.50485 33.4765V32.8092H2.57768V33.4765C1.31335 33.5116 0.294866 34.0876 0.287842 35.394V35.4362C0.287842 36.7146 1.26418 37.2976 2.57768 37.3257V38H3.50485V37.3257C4.76215 37.2976 5.77361 36.7146 5.79468 35.4221V35.366C5.79468 34.0876 4.81834 33.5116 3.50485 33.4765ZM2.57768 36.6514C1.80503 36.6233 1.22906 36.3212 1.22906 35.4432V35.394C1.23609 34.4599 1.83313 34.1859 2.57768 34.1578V36.6514ZM3.50485 34.1578C4.28452 34.1859 4.85346 34.4809 4.85346 35.366V35.4221C4.83942 36.3493 4.24237 36.6162 3.50485 36.6443V34.1578Z" fill="#1D1F8E"/>
<path d="M9.70855 37.9297L12.0405 34.1438V37.9297H12.9818V32.9075H12.0405L9.70855 36.6724V32.9075H8.76733V37.9297H9.70855Z" fill="#1D1F8E"/>
<path d="M16.2317 37.9297H17.1659V35.7944H19.4207V37.9297H20.3619V32.9075H19.4207V35.0428H17.1659V32.9075H16.2317V37.9297Z" fill="#1D1F8E"/>
<path d="M25.4612 33.6732L26.1987 36.0051H24.7166L25.4612 33.6732ZM23.2275 37.9297H24.1055L24.4989 36.6865H26.4164L26.8168 37.9297H27.7861L26.1284 32.9075H24.9063L23.2275 37.9297Z" fill="#1D1F8E"/>
<path d="M30.6598 37.9297H31.594V35.7944H33.8487V37.9297H34.7899V32.9075H33.8487V35.0428H31.594V32.9075H30.6598V37.9297Z" fill="#1D1F8E"/>
<path d="M40.2404 38C41.4345 38 42.2915 37.3889 42.439 36.1807H41.5258C41.4275 36.8902 40.9358 37.2414 40.2404 37.2414C39.3133 37.2414 38.7724 36.5741 38.7724 35.4432V35.387C38.7724 34.2632 39.3484 33.5748 40.2334 33.5748C40.9569 33.5748 41.3292 33.919 41.4345 34.5863H42.3828C42.2704 33.4062 41.3783 32.8303 40.2264 32.8303C38.8286 32.8303 37.789 33.8839 37.789 35.394V35.4502C37.789 36.9955 38.667 38 40.2404 38Z" fill="#1D1F8E"/>
<path d="M47.6452 38C49.1695 38 50.1739 36.8972 50.1739 35.4292V35.373C50.1739 33.8979 49.1414 32.8373 47.6452 32.8373C46.1561 32.8373 45.1025 33.926 45.1025 35.394V35.4502C45.1025 36.8972 46.107 38 47.6452 38ZM47.6593 37.2484C46.7462 37.2484 46.0789 36.539 46.0789 35.4432V35.387C46.0789 34.3053 46.6619 33.5818 47.6452 33.5818C48.6286 33.5818 49.2046 34.3475 49.2046 35.38V35.4362C49.2046 36.5249 48.6075 37.2484 47.6593 37.2484Z" fill="#1D1F8E"/>
<path d="M53.1834 37.9297H55.115C56.2177 37.9297 56.8359 37.4591 56.8359 36.5249V36.4968C56.8359 35.8295 56.5128 35.4573 55.8314 35.3098C56.4004 35.1342 56.6251 34.7408 56.6251 34.2421V34.214C56.6251 33.3009 56.014 32.9075 54.9815 32.9075H53.1834V37.9297ZM54.0965 35.0218V33.5748H54.8551C55.4521 33.5748 55.7261 33.7785 55.7261 34.2562V34.2843C55.7261 34.797 55.4872 35.0218 54.8691 35.0218H54.0965ZM54.0965 37.2624V35.6539H54.9394C55.6277 35.6539 55.9157 35.9138 55.9157 36.4336V36.4617C55.9157 36.9815 55.6277 37.2624 55.0026 37.2624H54.0965Z" fill="#1D1F8E"/>
<path d="M61.5896 33.6732L62.3272 36.0051H60.8451L61.5896 33.6732ZM59.356 37.9297H60.234L60.6274 36.6865H62.5449L62.9453 37.9297H63.9146L62.2569 32.9075H61.0348L59.356 37.9297Z" fill="#1D1F8E"/>
<path d="M69.2827 33.631V35.2536H68.5803C67.9551 35.2536 67.625 34.9937 67.625 34.4388V34.4107C67.625 33.8207 67.9762 33.631 68.5732 33.631H69.2827ZM68.6856 35.9138H69.2827V37.9297H70.2169V32.9075H68.5732C67.4915 32.9075 66.7048 33.336 66.7048 34.3896V34.4177C66.7048 35.2184 67.1684 35.6329 67.8076 35.7663L66.3115 37.9297H67.33L68.6856 35.9138Z" fill="#1D1F8E"/>
<path d="M77.2516 37.9297H78.1929V33.6591H80.2931V32.9075H77.2516V37.9297Z" fill="#1D1F8E"/>
<path d="M83.2138 37.9297H84.148V36.0192H84.8504C85.9251 36.0192 86.6907 35.5486 86.6907 34.4879V34.4599C86.6907 33.4062 85.9532 32.9075 84.8294 32.9075H83.2138V37.9297ZM84.148 35.3449V33.631H84.8294C85.4264 33.631 85.7776 33.8628 85.7776 34.4599V34.4879C85.7776 35.0428 85.4475 35.3449 84.8294 35.3449H84.148Z" fill="#1D1F8E"/>
<path d="M90.0657 37.9929C90.9156 37.9929 91.2739 37.4521 91.604 36.7075L93.2827 32.9075H92.3837L91.2458 35.5837L90.0798 32.9075H89.0964L90.8033 36.6162C90.5996 37.0166 90.3537 37.1852 90.0095 37.1852C89.8199 37.1852 89.7145 37.1501 89.6864 37.143V37.9157C89.7075 37.9297 89.841 37.9929 90.0657 37.9929Z" fill="#1D1F8E"/>
<path d="M99.1281 37.9297H100.069V32.9075H96.0094V37.9297H96.9506V33.6591H99.1281V37.9297Z" fill="#1D1F8E"/>
<path d="M106.442 37.9297H107.383V32.9075H103.323V37.9297H104.264V33.6591H106.442V37.9297Z" fill="#1D1F8E"/>
<path d="M112.484 33.6732L113.221 36.0051H111.739L112.484 33.6732ZM110.25 37.9297H111.128L111.521 36.6865H113.439L113.839 37.9297H114.809L113.151 32.9075H111.929L110.25 37.9297Z" fill="#1D1F8E"/>
</svg>
