<svg width="124" height="26" viewBox="0 0 124 26" fill="none" xmlns="http://www.w3.org/2000/svg"><path fill-rule="evenodd" clip-rule="evenodd" d="M34.4616 0C35.0139 0 35.4616 0.447716 35.4616 1V6.6462C35.4616 7.19848 35.0139 7.6462 34.4616 7.6462H14.9065C14.3542 7.6462 13.9065 8.09391 13.9065 8.6462V13.1152C13.9065 13.4353 14.1659 13.6947 14.4859 13.6947C14.806 13.6947 15.0739 13.4339 15.1579 13.1251C15.4227 12.1515 16.4454 10.271 20.3962 10.271H31.7962C32.3485 10.271 32.7962 10.7187 32.7962 11.271V15.3195C32.7962 15.8718 32.3485 16.3195 31.7962 16.3195H14.9065C14.3542 16.3195 13.9065 16.7672 13.9065 17.3195V24.1107C13.9065 24.663 13.4588 25.1107 12.9065 25.1107H1C0.447715 25.1107 0 24.663 0 24.1107V1C0 0.447715 0.447716 0 1 0H34.4616ZM66.8683 12.8958C67.124 12.8958 67.3364 12.6914 67.3747 12.4385C67.5796 11.0844 68.7413 7.1897 75.327 7.1897H78.8037C84.5608 7.1897 87.727 10.271 87.727 15.5206V24.1107C87.727 24.663 87.2793 25.1107 86.727 25.1107H75.3999C74.8476 25.1107 74.3999 24.663 74.3999 24.1107V16.5206C74.3999 15.9683 73.9522 15.5206 73.3999 15.5206H67.4037C66.8514 15.5206 66.4037 15.9683 66.4037 16.5206V24.1107C66.4037 24.663 65.956 25.1107 65.4037 25.1107H53.2654C52.7131 25.1107 52.2654 24.663 52.2654 24.1107V8.64619C52.2654 8.0939 52.7131 7.64619 53.2654 7.64619H65.4037C65.956 7.64619 66.4037 8.0939 66.4037 8.64618V12.4313C66.4037 12.6878 66.6117 12.8958 66.8683 12.8958ZM106.286 7.1897C112.708 7.27075 117.591 7.81135 121.474 8.59792C121.935 8.69123 122.262 9.09873 122.262 9.56871V12.9978C122.262 13.6192 121.701 14.0895 121.087 13.9894C116.119 13.1781 111.89 12.8886 106.507 13.0518C105.164 13.0511 104.523 13.53 104.389 14.2044C104.299 14.6533 104.746 14.9758 105.204 14.9758H112.22C120.501 15.0633 124 16.3757 124 20.3129C124 24.2501 118.686 25.7813 107.172 26H105.4C98.9813 25.9182 94.3213 25.6069 90.4845 24.8514C90.0237 24.7606 89.6973 24.353 89.6973 23.8833V20.4759C89.6973 19.8471 90.2705 19.3757 90.8866 19.5014C90.9273 19.5097 90.9681 19.518 91.009 19.5264L91.0095 19.5265C94.3718 20.2127 98.1435 20.9824 106.286 20.7504C107.633 20.687 108.053 20.3484 108.081 19.7677C108.103 19.3109 107.653 19.0006 107.195 18.9979C104.741 18.9835 100.589 18.914 100.529 18.913C100.527 18.913 100.528 18.913 100.525 18.913C92.2465 18.8251 89.4573 17.2501 89.4573 13.3143C89.4573 9.37704 93.0001 7.40757 104.514 7.1897H106.286ZM35.4618 24.1105C35.4618 24.6628 35.9095 25.1105 36.4618 25.1105H48.6001C49.1524 25.1105 49.6001 24.6628 49.6001 24.1105V8.646C49.6001 8.09371 49.1524 7.646 48.6001 7.646H36.4618C35.9095 7.646 35.4618 8.09371 35.4618 8.646V24.1105Z" fill="#2A2738"></path></svg>