<svg width="10" height="10" viewBox="0 0 10 10" fill="none" xmlns="http://www.w3.org/2000/svg">
<path fill-rule="evenodd" clip-rule="evenodd" d="M5 10C7.76142 10 10 7.76142 10 5C10 2.23858 7.76142 0 5 0C2.23858 0 0 2.23858 0 5C0 7.76142 2.23858 10 5 10Z" fill="#383383" fill-opacity="0.2"/>
<path fill-rule="evenodd" clip-rule="evenodd" d="M5.60002 3.1C5.60002 3.43137 5.33139 3.7 5.00002 3.7C4.66865 3.7 4.40002 3.43137 4.40002 3.1C4.40002 2.76863 4.66865 2.5 5.00002 2.5C5.33139 2.5 5.60002 2.76863 5.60002 3.1ZM5.00002 4.75C4.66865 4.75 4.40002 5.01863 4.40002 5.35V6.9C4.40002 7.23137 4.66865 7.5 5.00002 7.5C5.33139 7.5 5.60002 7.23137 5.60002 6.9V5.35C5.60002 5.01863 5.33139 4.75 5.00002 4.75Z" fill="white"/>
</svg>
