<svg width="26" height="27" viewBox="0 0 26 27" fill="none" xmlns="http://www.w3.org/2000/svg">
<path d="M13 0.5C5.82947 0.5 0 6.32947 0 13.5C0 20.6705 5.82947 26.5 13 26.5C20.1705 26.5 26 20.6705 26 13.5C26 6.32947 20.1705 0.5 13 0.5ZM20.1432 18.3168C19.8968 18.9189 19.4589 19.5211 19.1853 19.7947C17.6253 21.3547 13.4379 19.9589 9.98947 16.5105C6.54105 13.0621 5.14526 8.90211 6.70526 7.31474C6.97895 7.04105 7.60842 6.60316 8.18316 6.35684C8.62105 6.16526 9.14105 6.30211 9.44211 6.68526L11.1663 8.87474C11.5221 9.31263 11.4674 9.96947 11.0295 10.3526C10.5916 10.7358 10.2905 11.0095 10.2084 11.0916C9.55158 11.7484 10.5095 13.1442 11.96 14.5947C13.4105 16.0453 14.7789 17.0305 15.4632 16.3463C15.5453 16.2642 15.8189 15.9632 16.2021 15.5253C16.5853 15.0874 17.2147 15.0326 17.68 15.3884L19.8695 17.1126C20.2253 17.3316 20.3347 17.8516 20.1432 18.3168Z" fill="#482AA4"/>
</svg>
