<svg width="87" height="95" viewBox="0 0 87 95" fill="none" xmlns="http://www.w3.org/2000/svg">
<path d="M25.5882 10.239H25.3382V10.489V14.0852C25.3382 15.2447 24.4477 16.1328 23.2802 16.1328C22.1198 16.1328 21.2223 15.1519 21.2223 14.0852V2.29758C21.2223 1.13808 22.1128 0.25 23.2802 0.25C24.4477 0.25 25.3382 1.13808 25.3382 2.29758V5.8938V6.1438H25.5882H57.2482V10.239H25.5882Z" fill="#FF809F" stroke="#FAFAFA" stroke-width="0.5"/>
<path d="M65.6773 5.8938V6.1438H65.9273H79.7751C83.5472 6.1438 86.6514 9.22587 86.75 13.0895V87.8076C86.75 91.662 83.5538 94.75 79.7751 94.75H7.22491C3.35034 94.75 0.25 91.5666 0.25 87.8076V13.0862C0.25 9.23181 3.44616 6.1438 7.22491 6.1438H16.9092V10.239H7.22491C5.68306 10.239 4.36592 11.5486 4.36592 13.0862V22.1767V22.4267H4.61592H82.3841H82.6341V22.1767V13.0862C82.6341 11.5486 81.3169 10.239 79.7751 10.239H65.9273H65.6773V10.489V14.0852C65.6773 15.2447 64.7869 16.1328 63.6194 16.1328C62.4519 16.1328 61.5614 15.2447 61.5614 14.0852V2.29758C61.5614 1.13808 62.4519 0.25 63.6194 0.25C64.7869 0.25 65.6773 1.13808 65.6773 2.29758V5.8938ZM4.51557 26.5218H4.26557V26.7718V87.7077C4.26557 89.2453 5.58272 90.5549 7.12457 90.5549H79.6747C81.2166 90.5549 82.5337 89.2453 82.5337 87.7077V26.7718V26.5218H82.2837H4.51557Z" fill="#FF809F" stroke="#FAFAFA" stroke-width="0.5"/>
<path d="M41.2934 39.2587C41.2934 42.9155 38.396 45.8015 34.7199 45.8015C31.1441 45.8015 28.1464 42.8156 28.1464 39.2587C28.1464 35.6042 31.1417 32.7158 34.7199 32.7158C38.396 32.7158 41.2934 35.6018 41.2934 39.2587ZM37.9803 39.2587C37.9803 37.416 36.457 36.0118 34.7199 36.0118C32.9828 36.0118 31.4595 37.416 31.4595 39.2587C31.4595 41.1014 32.9828 42.5055 34.7199 42.5055C36.457 42.5055 37.9803 41.1014 37.9803 39.2587Z" fill="#482AA4" stroke="#FAFAFA" stroke-width="0.5"/>
<path d="M23.8329 39.2587C23.8329 42.9132 20.8376 45.8015 17.2594 45.8015C13.6907 45.8015 10.7845 42.8222 10.6859 39.2553C10.6876 35.6 13.5844 32.7158 17.2594 32.7158C20.9355 32.7158 23.8329 35.6018 23.8329 39.2587ZM20.5198 39.2587C20.5198 37.416 18.9965 36.0118 17.2594 36.0118C15.5223 36.0118 13.999 37.416 13.999 39.2587C13.999 41.1014 15.5223 42.5055 17.2594 42.5055C19.1023 42.5055 20.5198 41.096 20.5198 39.2587Z" fill="#FF809F" stroke="#FAFAFA" stroke-width="0.5"/>
<path d="M58.7534 39.2587C58.7534 42.9132 55.7581 45.8015 52.1799 45.8015C48.5061 45.8015 45.6063 42.818 45.6063 39.2587C45.6063 35.6018 48.5037 32.7158 52.1799 32.7158C55.856 32.7158 58.7534 35.6018 58.7534 39.2587ZM55.4402 39.2587C55.4402 37.416 53.9169 36.0118 52.1799 36.0118C50.4428 36.0118 48.9195 37.416 48.9195 39.2587C48.9195 41.1014 50.4428 42.5055 52.1799 42.5055C54.0227 42.5055 55.4402 41.096 55.4402 39.2587Z" fill="#FF809F" stroke="#FAFAFA" stroke-width="0.5"/>
<path d="M76.2138 39.2587C76.2138 42.9132 73.2185 45.8015 69.6403 45.8015C65.9665 45.8015 63.0668 42.818 63.0668 39.2587C63.0668 35.6042 66.0621 32.7158 69.6403 32.7158C73.3164 32.7158 76.2138 35.6018 76.2138 39.2587ZM72.9007 39.2587C72.9007 37.416 71.3774 36.0118 69.6403 36.0118C67.7974 36.0118 66.3799 37.4213 66.3799 39.2587C66.3799 41.1014 67.9032 42.5055 69.6403 42.5055C71.4832 42.5055 72.9007 41.096 72.9007 39.2587Z" fill="#FF809F" stroke="#FAFAFA" stroke-width="0.5"/>
<path d="M13.9995 58.5228L13.999 58.5306V58.5385C13.999 60.3812 15.5223 61.7853 17.2594 61.7853C19.1077 61.7853 20.5198 60.2705 20.5198 58.5385C20.5198 56.6957 18.9965 55.2916 17.2594 55.2916C15.5037 55.2916 14.1069 56.8117 13.9995 58.5228ZM23.8329 58.5385C23.8329 62.1929 20.8376 65.0813 17.2594 65.0813C13.6907 65.0813 10.7845 62.102 10.6859 58.5351C10.6876 54.8798 13.5844 51.9956 17.2594 51.9956C20.9331 51.9956 23.8329 54.9791 23.8329 58.5385Z" fill="#FF809F" stroke="#FAFAFA" stroke-width="0.5"/>
<path d="M41.2934 58.5385C41.2934 62.1953 38.396 65.0813 34.7199 65.0813C31.1441 65.0813 28.1464 62.0954 28.1464 58.5385C28.1464 54.884 31.1417 51.9956 34.7199 51.9956C38.3936 51.9956 41.2934 54.9791 41.2934 58.5385ZM37.9803 58.5385C37.9803 56.6957 36.457 55.2916 34.7199 55.2916C32.9773 55.2916 31.4595 56.801 31.4595 58.5385C31.4595 60.3812 32.9828 61.7853 34.7199 61.7853C36.4624 61.7853 37.9803 60.2759 37.9803 58.5385Z" fill="#482AA4" stroke="#FAFAFA" stroke-width="0.5"/>
<path d="M58.7534 58.5385C58.7534 62.1929 55.7581 65.0813 52.1799 65.0813C48.5061 65.0813 45.6063 62.0978 45.6063 58.5385C45.6063 54.8816 48.5037 51.9956 52.1799 51.9956C55.8536 51.9956 58.7534 54.9791 58.7534 58.5385ZM55.4402 58.5385C55.4402 56.6957 53.9169 55.2916 52.1799 55.2916C50.4373 55.2916 48.9195 56.801 48.9195 58.5385C48.9195 60.3812 50.4428 61.7853 52.1799 61.7853C54.0281 61.7853 55.4402 60.2705 55.4402 58.5385Z" fill="#FF809F" stroke="#FAFAFA" stroke-width="0.5"/>
<path d="M76.2138 58.5385C76.2138 62.1929 73.2185 65.0813 69.6403 65.0813C65.9665 65.0813 63.0668 62.0978 63.0668 58.5385C63.0668 54.884 66.0621 51.9956 69.6403 51.9956C73.314 51.9956 76.2138 54.9791 76.2138 58.5385ZM72.9007 58.5385C72.9007 56.6957 71.3774 55.2916 69.6403 55.2916C67.792 55.2916 66.3799 56.8064 66.3799 58.5385C66.3799 60.3812 67.9032 61.7853 69.6403 61.7853C71.4886 61.7853 72.9007 60.2705 72.9007 58.5385Z" fill="#FF809F" stroke="#FAFAFA" stroke-width="0.5"/>
<path d="M23.8329 77.8182C23.8329 81.4727 20.8376 84.3611 17.2594 84.3611C13.6812 84.3611 10.6859 81.4727 10.6859 77.8182C10.6859 74.1614 13.5832 71.2754 17.2594 71.2754C20.9355 71.2754 23.8329 74.1614 23.8329 77.8182ZM20.5198 77.8182C20.5198 75.9755 18.9965 74.5714 17.2594 74.5714C15.5223 74.5714 13.999 75.9755 13.999 77.8182C13.999 79.661 15.5223 81.0651 17.2594 81.0651C19.1023 81.0651 20.5198 79.6556 20.5198 77.8182Z" fill="#FF809F" stroke="#FAFAFA" stroke-width="0.5"/>
<path d="M41.2934 77.8182C41.2934 81.4751 38.396 84.3611 34.7199 84.3611C31.1417 84.3611 28.1464 81.4727 28.1464 77.8182C28.1464 74.1638 31.1417 71.2754 34.7199 71.2754C38.396 71.2754 41.2934 74.1614 41.2934 77.8182ZM37.9803 77.8182C37.9803 75.9755 36.457 74.5714 34.7199 74.5714C32.9828 74.5714 31.4595 75.9755 31.4595 77.8182C31.4595 79.661 32.9828 81.0651 34.7199 81.0651C36.457 81.0651 37.9803 79.661 37.9803 77.8182Z" fill="#FF809F" stroke="#FAFAFA" stroke-width="0.5"/>
<path d="M58.7534 77.8182C58.7534 81.4727 55.7581 84.3611 52.1799 84.3611C48.5037 84.3611 45.6063 81.4751 45.6063 77.8182C45.6063 74.1614 48.5037 71.2754 52.1799 71.2754C55.856 71.2754 58.7534 74.1614 58.7534 77.8182ZM55.4402 77.8182C55.4402 75.9755 53.9169 74.5714 52.1799 74.5714C50.4428 74.5714 48.9195 75.9755 48.9195 77.8182C48.9195 79.661 50.4428 81.0651 52.1799 81.0651C54.0227 81.0651 55.4402 79.6556 55.4402 77.8182Z" fill="#FF809F" stroke="#FAFAFA" stroke-width="0.5"/>
<path d="M76.2138 77.8182C76.2138 81.4727 73.2185 84.3611 69.6403 84.3611C65.9642 84.3611 63.0668 81.4751 63.0668 77.8182C63.0668 74.1638 66.0621 71.2754 69.6403 71.2754C73.3164 71.2754 76.2138 74.1614 76.2138 77.8182ZM72.9007 77.8182C72.9007 75.9755 71.3774 74.5714 69.6403 74.5714C67.7974 74.5714 66.3799 75.9809 66.3799 77.8182C66.3799 79.661 67.9032 81.0651 69.6403 81.0651C71.4832 81.0651 72.9007 79.6556 72.9007 77.8182Z" fill="#482AA4" stroke="#FAFAFA" stroke-width="0.5"/>
</svg>
