<svg width="95" height="95" viewBox="0 0 95 95" fill="none" xmlns="http://www.w3.org/2000/svg">
<rect opacity="0.09" width="95" height="95" fill="white"/>
<path d="M18.6856 20.1648C18.5462 20.3026 18.4356 20.4662 18.3601 20.6463C18.2847 20.8264 18.2458 21.0195 18.2458 21.2145C18.2458 21.4094 18.2847 21.6025 18.3601 21.7826C18.4356 21.9627 18.5462 22.1263 18.6856 22.2641L31.9237 35.3718C32.205 35.6502 32.5866 35.8066 32.9844 35.8066C33.3823 35.8066 33.7638 35.6502 34.0451 35.3718C34.3264 35.0934 34.4845 34.7159 34.4845 34.3222C34.4845 33.9285 34.3264 33.5509 34.0451 33.2725L20.7995 20.1648C20.5186 19.8885 20.1386 19.7334 19.7425 19.7334C19.3464 19.7334 18.9665 19.8885 18.6856 20.1648Z" fill="#FF809F"/>
<path d="M61.4733 27.3974V9.09713C61.4733 8.70366 61.3154 8.3263 61.0342 8.04806C60.753 7.76983 60.3717 7.61353 59.9741 7.61353C59.5765 7.61353 59.1951 7.76983 58.914 8.04806C58.6328 8.3263 58.4749 8.70366 58.4749 9.09713V27.3974C58.4749 27.7909 58.6328 28.1683 58.914 28.4465C59.1951 28.7247 59.5765 28.8811 59.9741 28.8811C60.3717 28.8811 60.753 28.7247 61.0342 28.4465C61.3154 28.1683 61.4733 27.7909 61.4733 27.3974Z" fill="#FF809F"/>
<path d="M38.2278 1.11523C38.1786 0.926241 38.0922 0.7487 37.9737 0.59274C37.8551 0.43678 37.7067 0.305455 37.5368 0.206264C37.367 0.107072 37.1791 0.0419568 36.9838 0.0146352C36.7885 -0.0126865 36.5897 -0.00167927 36.3988 0.0470283C36.2078 0.0957359 36.0284 0.18119 35.8708 0.298511C35.7132 0.415833 35.5805 0.562724 35.4802 0.730798C35.38 0.898873 35.3142 1.08484 35.2866 1.27808C35.259 1.47132 35.2701 1.66805 35.3193 1.85703L39.817 19.6603C39.8662 19.8493 39.9526 20.0269 40.0711 20.1828C40.1897 20.3388 40.3381 20.4701 40.508 20.5693C40.6778 20.6685 40.8657 20.7336 41.061 20.7609C41.2563 20.7882 41.4551 20.7772 41.646 20.7285C41.837 20.6798 42.0164 20.5944 42.174 20.477C42.3316 20.3597 42.4643 20.2128 42.5646 20.0448C42.6648 19.8767 42.7306 19.6907 42.7582 19.4975C42.7858 19.3042 42.7747 19.1075 42.7255 18.9185L38.2278 1.11523Z" fill="#FF809F"/>
<path d="M18.4605 53.991C23.1681 60.6672 23.1306 63.6789 23.1006 66.6016C22.8757 87.8469 37.7555 94.4119 46.5935 94.9386C47.2681 94.9757 47.9203 94.9979 48.5724 94.9979C52.6593 95.0459 56.7101 94.2357 60.4573 92.6208C64.2045 91.0058 67.563 88.6227 70.3112 85.6289L75.2212 80.2731L75.3036 80.1767L77.7399 77.5136C78.6024 76.6592 79.2164 75.5907 79.5173 74.4203C79.8181 73.2499 79.7947 72.0209 79.4495 70.8625C79.1044 69.7042 78.4501 68.6592 77.5557 67.8377C76.6612 67.0161 75.5596 66.4482 74.3666 66.1937C74.6008 65.3517 74.6476 64.4694 74.5038 63.6078C74.36 62.7462 74.0291 61.9257 73.5338 61.2028C73.0386 60.48 72.3908 59.8721 71.6351 59.4211C70.8794 58.97 70.0339 58.6865 69.1568 58.5902C69.4004 57.924 69.5272 57.2215 69.5316 56.5131C69.5357 54.966 68.9968 53.4656 68.0069 52.2682C67.017 51.0707 65.6376 50.2507 64.1044 49.9481L72.2377 41.8699C72.8758 41.2405 73.3808 40.4916 73.7233 39.6669C74.0657 38.8423 74.2388 37.9584 74.2323 37.0668C74.2258 36.1753 74.0399 35.2939 73.6855 34.4743C73.3311 33.6546 72.8152 32.913 72.168 32.2927C71.5208 31.6725 70.7553 31.186 69.916 30.8617C69.0768 30.5374 68.1807 30.3818 67.28 30.4039C66.3793 30.4261 65.4921 30.6255 64.6702 30.9907C63.8482 31.3558 63.108 31.8793 62.4927 32.5306C53.5799 41.9441 42.5006 52.6557 38.1303 54.4138C35.5817 55.4523 34.967 54.6438 32.9955 51.4466C31.6263 48.9417 29.8075 46.7045 27.6283 44.8445C25.0346 42.7601 21.9837 42.7007 19.4575 44.6813C16.6015 46.9142 16.1892 50.7567 18.4605 53.991ZM72.9199 69.0199C73.4172 69.0181 73.91 69.1142 74.3694 69.3027C74.8289 69.4911 75.2458 69.7682 75.596 70.1178C75.9493 70.4721 76.2283 70.8921 76.417 71.3535C76.6057 71.8149 76.7004 72.3087 76.6955 72.8065C76.6906 73.3043 76.5863 73.7962 76.3886 74.2539C76.1909 74.7116 75.9037 75.1262 75.5435 75.4736L73.1672 78.0625C72.5308 78.36 71.8176 78.4576 71.1235 78.3422C70.4294 78.2268 69.7876 77.904 69.2842 77.4171L69.1493 77.2762C68.5363 76.6813 68.1678 75.8826 68.1152 75.0345C68.0626 74.1864 68.3296 73.3491 68.8645 72.6844L72.6125 68.9754L72.9199 69.0199ZM70.671 62.3882C71.2261 62.9329 71.553 63.6649 71.5863 64.4378C71.6197 65.2107 71.3571 65.9676 70.8509 66.5571C70.7882 66.614 70.7306 66.676 70.6785 66.7426L66.3757 71.0005C65.7681 71.2205 65.1103 71.2675 64.477 71.1364C63.8437 71.0053 63.2602 70.7013 62.7926 70.2587L62.6127 70.0807C62.0226 69.4743 61.6759 68.6761 61.6373 67.8351C61.5986 66.9942 61.8708 66.1681 62.4028 65.5112C63.0025 65.0513 65.5137 63.0855 66.848 61.9505C67.4418 61.5947 68.1383 61.4446 68.8278 61.5239C69.5173 61.6031 70.1605 61.9072 70.656 62.3882H70.671ZM65.4237 53.85C65.777 54.1965 66.057 54.6091 66.2475 55.0638C66.4379 55.5185 66.535 56.0061 66.5332 56.4983C66.4352 57.7034 65.8714 58.8247 64.959 59.6287C64.0444 60.415 62.073 61.9802 60.6187 63.1077C59.9986 63.2829 59.3424 63.2899 58.7186 63.1281C58.0949 62.9663 57.5265 62.6416 57.0731 62.1879L56.9756 62.0915C56.2931 61.4155 55.9097 60.499 55.9097 59.5434C55.9097 58.5878 56.2931 57.6713 56.9756 56.9953L60.4988 53.5088C61.2207 52.9668 62.1167 52.7019 63.0208 52.7633C63.9249 52.8246 64.7759 53.2081 65.4162 53.8426L65.4237 53.85ZM21.324 46.9735C22.7633 45.846 24.21 45.8905 25.7392 47.1144C27.6472 48.7608 29.2372 50.7364 30.4318 52.945C31.1273 54.2328 32.0002 55.4186 33.0255 56.4686C33.0534 56.5096 33.0835 56.5492 33.1154 56.5873C33.2429 56.7208 36.1139 59.829 33.1904 64.3466C32.9934 64.6777 32.934 65.0716 33.0246 65.4452C33.1152 65.8189 33.3487 66.1432 33.6761 66.3499C34.0034 66.5565 34.399 66.6295 34.7796 66.5533C35.1602 66.4771 35.4961 66.2578 35.7166 65.9414C36.5439 64.7678 37.0968 63.4267 37.3354 62.0153C37.574 60.604 37.4921 59.1578 37.0959 57.7816C37.8384 57.681 38.5643 57.484 39.2548 57.1956C45.1542 54.7995 58.9846 40.594 64.6666 34.5928C65.0118 34.2244 65.4289 33.9293 65.8928 33.7253C66.3567 33.5212 66.8576 33.4126 67.3652 33.4059C67.8735 33.398 68.3782 33.4911 68.8494 33.6797C69.3207 33.8683 69.7489 34.1485 70.1088 34.5038C70.4613 34.8517 70.7409 35.2651 70.9317 35.7202C71.1225 36.1752 71.2207 36.6631 71.2207 37.1557C71.2207 37.6484 71.1225 38.1362 70.9317 38.5913C70.7409 39.0464 70.4613 39.4597 70.1088 39.8077L54.8467 54.8811C54.2266 55.4918 53.7345 56.2178 53.3988 57.0172C53.063 57.8167 52.8901 58.6739 52.8901 59.5397C52.8901 60.4054 53.063 61.2626 53.3988 62.0621C53.7345 62.8616 54.2266 63.5875 54.8467 64.1982L54.9292 64.2798C55.9616 65.3042 57.3093 65.9593 58.7597 66.1417C58.4983 67.2123 58.5182 68.3312 58.8173 69.3921C59.1165 70.4529 59.685 71.4203 60.4688 72.2023L60.5288 72.2542L60.5887 72.3135C61.8049 73.5062 63.4492 74.173 65.1614 74.168C65.0589 75.1161 65.1728 76.0748 65.4945 76.9734C65.8163 77.8721 66.3377 78.6879 67.0204 79.3607L67.1329 79.4868C68.0001 80.343 69.094 80.9395 70.2887 81.2078L68.0399 83.6631L67.9799 83.7299C65.2959 86.5894 61.9963 88.8148 58.3254 90.2414C54.6545 91.668 50.7064 92.2592 46.7734 91.9713C42.9108 91.6399 39.1916 90.3655 35.949 88.2623C36.1813 88.2623 36.4212 88.2623 36.6611 88.2623H37.2983C41.0463 88.0249 44.4721 85.7773 47.5305 81.5861C47.7512 81.266 47.8366 80.8731 47.7684 80.4915C47.7003 80.1099 47.4839 79.7699 47.1656 79.5441C46.8474 79.3183 46.4525 79.2247 46.0654 79.2833C45.6783 79.3419 45.3297 79.5481 45.0942 79.8577C42.598 83.2997 39.9219 85.1393 37.1334 85.3248C33.2429 85.577 30.2519 82.4985 30.2069 82.454C30.1406 82.3854 30.0678 82.3233 29.9895 82.2685C27.6433 78.604 26.0316 73.5746 26.1066 66.6239C26.1515 62.6998 25.7917 59.1539 20.9267 52.27C19.7948 50.6974 19.4875 48.4274 21.324 46.9735Z" fill="#FF809F"/>
<path d="M44.6668 30.2385L41.3535 30.7132L43.7523 33.0276L43.1826 36.2916L46.1435 34.7486L49.1045 36.2916L48.5348 33.0276L50.9336 30.7132L47.6203 30.2385L46.1435 27.2712L44.6668 30.2385Z" fill="#482AA4"/>
<path d="M49.487 12.398L50.499 14.6531L51.6984 12.4796L54.1796 12.2274L52.463 10.4323L52.9877 8.01397L50.7314 9.07475L48.565 7.83594L48.8874 10.2913L47.0283 11.9455L49.487 12.398Z" fill="#482AA4"/>
<path d="M29.5399 11.4041L27.7333 9.70532L27.4635 12.1607L25.2671 13.3402L27.5459 14.349L28.0032 16.7821L29.6748 14.9425L32.156 15.2689L30.9042 13.125L31.9836 10.8996L29.5399 11.4041Z" fill="#482AA4"/>
</svg>
