<svg width="95" height="95" viewBox="0 0 95 95" fill="none" xmlns="http://www.w3.org/2000/svg">
<rect width="95" height="95" fill="#FAFAFA"/>
<path d="M63.1592 88.552H31.8406C31.4253 88.552 31.0269 88.387 30.7333 88.0934C30.4396 87.7997 30.2746 87.4014 30.2746 86.9861V52.9949H22.2257C21.915 52.9886 21.6131 52.89 21.3586 52.7117C21.104 52.5333 20.9083 52.2832 20.7964 51.9933C20.6844 51.7033 20.6613 51.3866 20.7299 51.0835C20.7986 50.7803 20.9559 50.5045 21.1818 50.291L46.4559 26.4471C46.7466 26.1725 47.1314 26.0195 47.5312 26.0195C47.9311 26.0195 48.3158 26.1725 48.6065 26.4471L73.8494 50.2806C74.0753 50.494 74.2326 50.7699 74.3012 51.073C74.3698 51.3762 74.3467 51.6929 74.2347 51.9828C74.1228 52.2728 73.9271 52.5229 73.6725 52.7012C73.418 52.8796 73.1161 52.9782 72.8054 52.9844H64.7147V86.9861C64.7147 87.3996 64.5512 87.7963 64.2598 88.0897C63.9684 88.3831 63.5727 88.5493 63.1592 88.552ZM33.4378 85.4201H61.6246V51.4289C61.6246 51.0136 61.7896 50.6153 62.0833 50.3217C62.377 50.028 62.7752 49.863 63.1906 49.863H68.8801L47.4999 29.7355L26.1719 49.863H31.8406C32.2559 49.863 32.6542 50.028 32.9478 50.3217C33.2415 50.6153 33.4065 51.0136 33.4065 51.4289L33.4378 85.4201Z" fill="#FF809F"/>
<path d="M88.757 88.552H58.1482C57.7329 88.552 57.3346 88.387 57.0409 88.0933C56.7473 87.7997 56.5823 87.4014 56.5823 86.9861C56.5823 86.5707 56.7473 86.1724 57.0409 85.8788C57.3346 85.5851 57.7329 85.4201 58.1482 85.4201H87.1702V40.9163C87.1702 40.501 87.3352 40.1027 87.6288 39.809C87.9225 39.5153 88.3208 39.3503 88.7361 39.3503C89.1514 39.3503 89.5497 39.5153 89.8434 39.809C90.1371 40.1027 90.3021 40.501 90.3021 40.9163V86.9861C90.3021 87.3978 90.14 87.7929 89.8508 88.086C89.5616 88.3791 89.1687 88.5465 88.757 88.552Z" fill="#FF809F"/>
<path d="M36.8516 88.552H6.24281C5.83113 88.5465 5.43817 88.3791 5.149 88.086C4.85983 87.7929 4.69772 87.3978 4.69775 86.9861V40.9163C4.69775 40.501 4.86274 40.1027 5.15641 39.809C5.45007 39.5153 5.84838 39.3503 6.26369 39.3503C6.679 39.3503 7.0773 39.5153 7.37097 39.809C7.66464 40.1027 7.82962 40.501 7.82962 40.9163V85.4201H36.8516C37.2669 85.4201 37.6652 85.5851 37.9589 85.8788C38.2526 86.1724 38.4175 86.5707 38.4175 86.9861C38.4175 87.4014 38.2526 87.7997 37.9589 88.0933C37.6652 88.387 37.2669 88.552 36.8516 88.552Z" fill="#FF809F"/>
<path d="M47.5941 30.3619C47.1788 30.3619 46.7805 30.1969 46.4868 29.9032C46.1932 29.6096 46.0282 29.2113 46.0282 28.7959V12.9382C46.0282 12.5229 46.1932 12.1246 46.4868 11.831C46.7805 11.5373 47.1788 11.3723 47.5941 11.3723C48.0094 11.3723 48.4077 11.5373 48.7014 11.831C48.9951 12.1246 49.1601 12.5229 49.1601 12.9382V28.7959C49.1601 29.2113 48.9951 29.6096 48.7014 29.9032C48.4077 30.1969 48.0094 30.3619 47.5941 30.3619Z" fill="#FF809F"/>
<path d="M82.6604 66.0758C82.2451 66.0758 81.8468 65.9108 81.5531 65.6171C81.2595 65.3234 81.0945 64.9251 81.0945 64.5098V57.0664C81.0945 56.6511 81.2595 56.2528 81.5531 55.9591C81.8468 55.6655 82.2451 55.5005 82.6604 55.5005C83.0757 55.5005 83.474 55.6655 83.7677 55.9591C84.0614 56.2528 84.2264 56.6511 84.2264 57.0664V64.5203C84.2236 64.9338 84.0574 65.3294 83.764 65.6208C83.4706 65.9122 83.0739 66.0758 82.6604 66.0758Z" fill="#482AA4"/>
<path d="M76.543 66.0758C76.1277 66.0758 75.7294 65.9108 75.4357 65.6171C75.142 65.3234 74.9771 64.9251 74.9771 64.5098V57.0664C74.9771 56.6511 75.142 56.2528 75.4357 55.9591C75.7294 55.6655 76.1277 55.5005 76.543 55.5005C76.9583 55.5005 77.3566 55.6655 77.6503 55.9591C77.9439 56.2528 78.1089 56.6511 78.1089 57.0664V64.5203C78.1062 64.9338 77.94 65.3294 77.6466 65.6208C77.3532 65.9122 76.9565 66.0758 76.543 66.0758Z" fill="#482AA4"/>
<path d="M70.4669 66.0758C70.0516 66.0758 69.6533 65.9108 69.3597 65.6171C69.066 65.3234 68.901 64.9251 68.901 64.5098V57.0664C68.901 56.6511 69.066 56.2528 69.3597 55.9591C69.6533 55.6655 70.0516 55.5005 70.4669 55.5005C70.8822 55.5005 71.2805 55.6655 71.5742 55.9591C71.8679 56.2528 72.0329 56.6511 72.0329 57.0664V64.5203C72.0301 64.9338 71.8639 65.3294 71.5705 65.6208C71.2772 65.9122 70.8804 66.0758 70.4669 66.0758Z" fill="#482AA4"/>
<path d="M24.5329 66.0758C24.1175 66.0758 23.7192 65.9108 23.4256 65.6171C23.1319 65.3234 22.9669 64.9251 22.9669 64.5098V57.0664C22.9669 56.6511 23.1319 56.2528 23.4256 55.9591C23.7192 55.6655 24.1175 55.5005 24.5329 55.5005C24.9482 55.5005 25.3465 55.6655 25.6401 55.9591C25.9338 56.2528 26.0988 56.6511 26.0988 57.0664V64.5203C26.096 64.9338 25.9298 65.3294 25.6365 65.6208C25.3431 65.9122 24.9464 66.0758 24.5329 66.0758Z" fill="#482AA4"/>
<path d="M18.457 66.0758C18.0417 66.0758 17.6434 65.9108 17.3498 65.6171C17.0561 65.3234 16.8911 64.9251 16.8911 64.5098V57.0664C16.8911 56.6511 17.0561 56.2528 17.3498 55.9591C17.6434 55.6655 18.0417 55.5005 18.457 55.5005C18.8724 55.5005 19.2707 55.6655 19.5643 55.9591C19.858 56.2528 20.023 56.6511 20.023 57.0664V64.5203C20.0202 64.9338 19.854 65.3294 19.5607 65.6208C19.2673 65.9122 18.8706 66.0758 18.457 66.0758Z" fill="#482AA4"/>
<path d="M12.3397 66.0758C11.9244 66.0758 11.5261 65.9108 11.2324 65.6171C10.9387 65.3234 10.7737 64.9251 10.7737 64.5098V57.0664C10.7737 56.6511 10.9387 56.2528 11.2324 55.9591C11.5261 55.6655 11.9244 55.5005 12.3397 55.5005C12.755 55.5005 13.1533 55.6655 13.447 55.9591C13.7406 56.2528 13.9056 56.6511 13.9056 57.0664V64.5203C13.9029 64.9338 13.7367 65.3294 13.4433 65.6208C13.1499 65.9122 12.7532 66.0758 12.3397 66.0758Z" fill="#482AA4"/>
<path d="M82.6604 83.1863C82.2451 83.1863 81.8468 83.0213 81.5531 82.7276C81.2595 82.434 81.0945 82.0357 81.0945 81.6204V74.1665C81.0945 73.7512 81.2595 73.3529 81.5531 73.0592C81.8468 72.7656 82.2451 72.6006 82.6604 72.6006C83.0757 72.6006 83.474 72.7656 83.7677 73.0592C84.0614 73.3529 84.2264 73.7512 84.2264 74.1665V81.6204C84.2264 82.0357 84.0614 82.434 83.7677 82.7276C83.474 83.0213 83.0757 83.1863 82.6604 83.1863Z" fill="#482AA4"/>
<path d="M76.543 83.1863C76.1277 83.1863 75.7294 83.0213 75.4357 82.7276C75.142 82.434 74.9771 82.0357 74.9771 81.6204V74.1665C74.9771 73.7512 75.142 73.3529 75.4357 73.0592C75.7294 72.7656 76.1277 72.6006 76.543 72.6006C76.9583 72.6006 77.3566 72.7656 77.6503 73.0592C77.9439 73.3529 78.1089 73.7512 78.1089 74.1665V81.6204C78.1089 82.0357 77.9439 82.434 77.6503 82.7276C77.3566 83.0213 76.9583 83.1863 76.543 83.1863Z" fill="#482AA4"/>
<path d="M70.4669 83.1863C70.0516 83.1863 69.6533 83.0213 69.3597 82.7276C69.066 82.434 68.901 82.0357 68.901 81.6204V74.1665C68.901 73.7512 69.066 73.3529 69.3597 73.0592C69.6533 72.7656 70.0516 72.6006 70.4669 72.6006C70.8822 72.6006 71.2805 72.7656 71.5742 73.0592C71.8679 73.3529 72.0329 73.7512 72.0329 74.1665V81.6204C72.0329 82.0357 71.8679 82.434 71.5742 82.7276C71.2805 83.0213 70.8822 83.1863 70.4669 83.1863Z" fill="#482AA4"/>
<path d="M24.5329 83.1863C24.1175 83.1863 23.7192 83.0213 23.4256 82.7276C23.1319 82.434 22.9669 82.0357 22.9669 81.6204V74.1665C22.9669 73.7512 23.1319 73.3529 23.4256 73.0592C23.7192 72.7656 24.1175 72.6006 24.5329 72.6006C24.9482 72.6006 25.3465 72.7656 25.6401 73.0592C25.9338 73.3529 26.0988 73.7512 26.0988 74.1665V81.6204C26.0988 82.0357 25.9338 82.434 25.6401 82.7276C25.3465 83.0213 24.9482 83.1863 24.5329 83.1863Z" fill="#482AA4"/>
<path d="M18.457 83.1863C18.0417 83.1863 17.6434 83.0213 17.3498 82.7276C17.0561 82.434 16.8911 82.0357 16.8911 81.6204V74.1665C16.8911 73.7512 17.0561 73.3529 17.3498 73.0592C17.6434 72.7656 18.0417 72.6006 18.457 72.6006C18.8724 72.6006 19.2707 72.7656 19.5643 73.0592C19.858 73.3529 20.023 73.7512 20.023 74.1665V81.6204C20.023 82.0357 19.858 82.434 19.5643 82.7276C19.2707 83.0213 18.8724 83.1863 18.457 83.1863Z" fill="#482AA4"/>
<path d="M12.3397 83.1863C11.9244 83.1863 11.5261 83.0213 11.2324 82.7276C10.9387 82.434 10.7737 82.0357 10.7737 81.6204V74.1665C10.7737 73.7512 10.9387 73.3529 11.2324 73.0592C11.5261 72.7656 11.9244 72.6006 12.3397 72.6006C12.755 72.6006 13.1533 72.7656 13.447 73.0592C13.7406 73.3529 13.9056 73.7512 13.9056 74.1665V81.6204C13.9056 82.0357 13.7406 82.434 13.447 82.7276C13.1533 83.0213 12.755 83.1863 12.3397 83.1863Z" fill="#482AA4"/>
<path d="M93.434 42.4823H61.6978C61.2824 42.4823 60.8841 42.3174 60.5905 42.0237C60.2968 41.73 60.1318 41.3317 60.1318 40.9164C60.1318 40.5011 60.2968 40.1028 60.5905 39.8091C60.8841 39.5155 61.2824 39.3505 61.6978 39.3505H91.8681V36.6675H55.7681C55.3528 36.6675 54.9545 36.5025 54.6608 36.2089C54.3671 35.9152 54.2021 35.5169 54.2021 35.1016C54.2021 34.6863 54.3671 34.288 54.6608 33.9943C54.9545 33.7006 55.3528 33.5356 55.7681 33.5356H93.434C93.8493 33.5356 94.2476 33.7006 94.5413 33.9943C94.835 34.288 95 34.6863 95 35.1016V40.9164C95 41.3317 94.835 41.73 94.5413 42.0237C94.2476 42.3174 93.8493 42.4823 93.434 42.4823Z" fill="#FF809F"/>
<path d="M33.3648 42.4823H1.56593C1.15062 42.4823 0.752321 42.3174 0.458651 42.0237C0.164982 41.73 0 41.3317 0 40.9164V35.1016C0 34.6863 0.164982 34.288 0.458651 33.9943C0.752321 33.7006 1.15062 33.5356 1.56593 33.5356H39.5346C39.9499 33.5356 40.3482 33.7006 40.6419 33.9943C40.9356 34.288 41.1005 34.6863 41.1005 35.1016C41.1005 35.5169 40.9356 35.9152 40.6419 36.2089C40.3482 36.5025 39.9499 36.6675 39.5346 36.6675H3.13187V39.3505H33.4066C33.8219 39.3505 34.2202 39.5155 34.5139 39.8091C34.8075 40.1028 34.9725 40.5011 34.9725 40.9164C34.9725 41.3317 34.8075 41.73 34.5139 42.0237C34.2202 42.3174 33.8219 42.4823 33.4066 42.4823H33.3648Z" fill="#FF809F"/>
<path d="M93.4341 94.3669H1.56593C1.15062 94.3669 0.752321 94.2019 0.458651 93.9082C0.164982 93.6145 0 93.2163 0 92.8009V86.9861C0 86.5708 0.164982 86.1725 0.458651 85.8788C0.752321 85.5852 1.15062 85.4202 1.56593 85.4202H93.4341C93.8494 85.4202 94.2477 85.5852 94.5414 85.8788C94.835 86.1725 95 86.5708 95 86.9861V92.8009C95 93.2163 94.835 93.6145 94.5414 93.9082C94.2477 94.2019 93.8494 94.3669 93.4341 94.3669ZM3.13187 91.235H91.8681V88.552H3.13187V91.235Z" fill="#FF809F"/>
<path d="M22.2258 52.9947H6.24281C5.8275 52.9947 5.4292 52.8297 5.13553 52.536C4.84186 52.2423 4.67688 51.844 4.67688 51.4287C4.67688 51.0134 4.84186 50.6151 5.13553 50.3214C5.4292 50.0278 5.8275 49.8628 6.24281 49.8628H22.2258C22.6411 49.8628 23.0394 50.0278 23.3331 50.3214C23.6267 50.6151 23.7917 51.0134 23.7917 51.4287C23.7917 51.844 23.6267 52.2423 23.3331 52.536C23.0394 52.8297 22.6411 52.9947 22.2258 52.9947Z" fill="#FF809F"/>
<path d="M88.757 52.9947H72.7741C72.3588 52.9947 71.9604 52.8297 71.6668 52.536C71.3731 52.2423 71.2081 51.844 71.2081 51.4287C71.2081 51.0134 71.3731 50.6151 71.6668 50.3214C71.9604 50.0278 72.3588 49.8628 72.7741 49.8628H88.757C89.1723 49.8628 89.5706 50.0278 89.8643 50.3214C90.158 50.6151 90.323 51.0134 90.323 51.4287C90.323 51.844 90.158 52.2423 89.8643 52.536C89.5706 52.8297 89.1723 52.9947 88.757 52.9947Z" fill="#FF809F"/>
<path d="M55.7683 88.552H39.2321C38.8168 88.552 38.4185 88.387 38.1248 88.0934C37.8311 87.7997 37.6661 87.4014 37.6661 86.9861V69.9278C37.6689 67.5531 38.6135 65.2764 40.2927 63.5972C41.9719 61.9181 44.2485 60.9735 46.6233 60.9707H48.3771C50.7519 60.9735 53.0285 61.9181 54.7077 63.5972C56.3869 65.2764 57.3315 67.5531 57.3343 69.9278V86.9861C57.3343 87.4014 57.1693 87.7997 56.8756 88.0934C56.5819 88.387 56.1836 88.552 55.7683 88.552ZM40.798 85.4202H54.2024V69.9278C54.1996 68.3837 53.585 66.9037 52.4932 65.8118C51.4013 64.7199 49.9212 64.1053 48.3771 64.1026H46.6233C45.0792 64.1053 43.5991 64.7199 42.5072 65.8118C41.4154 66.9037 40.8008 68.3837 40.798 69.9278V85.4202Z" fill="#FF809F"/>
<path d="M59.6622 22.4383C57.9363 22.4429 56.2313 22.0612 54.6721 21.3212C51.8847 19.9954 48.1787 21.3212 48.1474 21.3212C47.9123 21.4043 47.6609 21.4301 47.4139 21.3965C47.1669 21.3628 46.9315 21.2707 46.7273 21.1277C46.5231 20.9848 46.356 20.7952 46.2398 20.5746C46.1236 20.3541 46.0618 20.109 46.0594 19.8597V12.3328C46.0625 12.0115 46.1643 11.6989 46.3511 11.4375C46.5378 11.176 46.8005 10.9783 47.1034 10.8712C47.3226 10.7877 52.4693 8.88772 56.1858 10.9756C59.0985 12.6146 60.9671 11.7273 61.0507 11.696C61.292 11.5782 61.5591 11.5231 61.8273 11.5359C62.0956 11.5486 62.3562 11.6288 62.5853 11.769C62.8131 11.9077 63.0017 12.1023 63.1333 12.3343C63.2648 12.5664 63.3349 12.8282 63.3369 13.0949V20.6635C63.3292 21.013 63.2047 21.3498 62.9833 21.6204C62.762 21.8909 62.4565 22.0796 62.1155 22.1564C61.3128 22.353 60.4886 22.4477 59.6622 22.4383ZM51.8534 17.6152C53.2937 17.5996 54.7197 17.9026 56.0292 18.5026C57.3084 19.1084 58.7188 19.3847 60.132 19.3064V15.0575C58.1858 15.1801 56.2485 14.7067 54.5781 13.7004C52.9182 12.7608 50.5067 13.1575 49.1496 13.502V17.8657C50.0267 17.6952 50.9181 17.6078 51.8116 17.6048L51.8534 17.6152Z" fill="#482AA4"/>
</svg>
