<svg width="62" height="62" viewBox="0 0 62 62" fill="none" xmlns="http://www.w3.org/2000/svg">
<g filter="url(#filter0_d)">
<circle cx="31" cy="31" r="26" fill="white"/>
</g>
<path opacity="0.32" fill-rule="evenodd" clip-rule="evenodd" d="M36.1798 17.7453C26.9206 17.7453 19.415 25.2212 19.415 34.4436C19.415 38.0129 20.5393 41.3197 22.4542 44.0328C18.2045 41.2436 15.4005 36.4478 15.4005 31.0007C15.4005 22.3854 22.4123 15.4001 31.0607 15.4001C34.3757 15.4001 37.4469 16.4268 39.9787 18.1758C38.7584 17.8937 37.4863 17.7453 36.1798 17.7453ZM44.467 22.9346C45.5975 24.8309 46.3018 26.7247 46.5986 29.0453C44.6566 28.1487 42.4881 27.7501 40.2075 27.7501C31.8103 27.7501 25.0029 34.5305 25.0029 42.8931C25.0029 43.5137 25.0411 44.1258 25.1137 44.7268C23.8885 42.5104 23.1902 39.9641 23.1902 37.2559C23.1902 28.6921 30.1602 21.751 38.7581 21.751C40.7136 21.751 42.743 22.2796 44.467 22.9346ZM44.4678 39.065C43.3496 38.605 42.1342 38.3266 40.856 38.2689C35.9906 38.0506 31.736 41.0949 30.225 45.4602C30.209 45.0861 30.2078 44.7084 30.225 44.3269C30.539 37.4165 36.4167 32.0675 43.3558 32.3802C44.4838 32.4305 45.5675 32.6648 46.5945 32.9886C46.3174 35.205 45.5773 37.2399 44.4678 39.065Z" fill="#1D1F8E"/>
<path fill-rule="evenodd" clip-rule="evenodd" d="M36.1785 44.2548C26.9194 44.2548 19.4138 36.7789 19.4138 27.5565C19.4138 23.9884 20.5381 20.6804 22.453 17.9673C18.2033 20.7565 15.3993 25.5523 15.3993 30.9994C15.3993 39.6147 22.4111 46.6 31.0595 46.6C34.3745 46.6 37.4457 45.5733 39.9775 43.8243C38.7572 44.1064 37.4851 44.2548 36.1785 44.2548ZM44.3502 39.2517C45.5176 37.3898 46.3033 35.2667 46.5939 32.9889C44.6877 33.8684 42.5647 34.3602 40.3259 34.3602C32.0864 34.3602 25.8516 27.7062 25.8516 19.4993C25.8516 18.8909 25.8898 18.2911 25.9612 17.7012C24.7581 19.8759 24.0734 22.3743 24.0734 25.0311C24.0734 33.4354 30.467 40.2489 38.9048 40.2489C40.8234 40.2489 42.6583 39.8944 44.3502 39.2517ZM44.4677 22.9348C43.3496 23.3948 42.1342 23.6732 40.8559 23.7308C35.9905 23.9492 31.7359 20.9049 30.2249 16.5396C30.2089 16.9136 30.2077 17.2914 30.2249 17.6729C30.539 24.5833 36.4166 29.9323 43.3557 29.6195C44.4837 29.5692 45.5711 29.3705 46.5993 29.0455C46.321 26.8316 45.5772 24.7611 44.4677 22.9348Z" fill="#1D1F8E"/>
<defs>
<filter id="filter0_d" x="0" y="0" width="62" height="62" filterUnits="userSpaceOnUse" color-interpolation-filters="sRGB">
<feFlood flood-opacity="0" result="BackgroundImageFix"/>
<feColorMatrix in="SourceAlpha" type="matrix" values="0 0 0 0 0 0 0 0 0 0 0 0 0 0 0 0 0 0 127 0"/>
<feOffset/>
<feGaussianBlur stdDeviation="2.5"/>
<feColorMatrix type="matrix" values="0 0 0 0 0 0 0 0 0 0 0 0 0 0 0 0 0 0 0.25 0"/>
<feBlend mode="normal" in2="BackgroundImageFix" result="effect1_dropShadow"/>
<feBlend mode="normal" in="SourceGraphic" in2="effect1_dropShadow" result="shape"/>
</filter>
</defs>
</svg>
