<svg width="62" height="62" viewBox="0 0 62 62" fill="none" xmlns="http://www.w3.org/2000/svg">
<g filter="url(#filter0_d)">
<rect x="5" y="5" width="52" height="52" rx="26" fill="white"/>
<rect x="5" y="5" width="52" height="52" rx="26" fill="white"/>
<path fill-rule="evenodd" clip-rule="evenodd" d="M36.2814 12.6701C36.7572 13.3829 38.2276 15.5855 38.854 18.2294C39.5531 21.1843 39.54 23.0006 39.2354 25.079C38.6881 28.8021 36.9328 31.6576 36.1691 32.6155C35.648 31.9648 34.8477 30.6365 34.3135 29.4075C34.3135 29.4075 33.3079 27.049 33.0418 24.7537C32.7737 22.4675 32.8881 20.1361 33.665 17.5065C34.3763 15.157 35.7754 13.0334 36.1578 12.4822C36.1833 12.5231 36.2255 12.5863 36.2814 12.6701ZM35.2291 28.2237C35.2797 30.0672 35.8139 31.2509 36.1578 31.8745C36.513 31.2419 37.124 29.8413 37.0725 28.0701C36.9966 26.2538 36.3612 24.9254 36.1691 24.6091C35.9535 24.9254 35.216 26.4526 35.2291 28.2237ZM38.3067 26.2809C38.4848 25.567 38.6244 24.3742 38.6507 23.2446C38.675 22.1241 38.5598 20.2084 37.989 18.2113C37.4155 16.2142 36.3096 14.3075 36.1447 14.0636C35.9798 14.3075 35.1016 15.8528 34.3257 18.2655C34.1223 18.9884 33.7512 20.5698 33.6893 22.097C33.6153 23.9495 33.8777 25.8019 33.9827 26.317C33.9827 25.7025 33.9939 23.6513 34.3894 21.9614C34.783 20.2716 35.5346 18.3197 36.1447 17.3257C36.8054 18.3649 37.6329 20.624 37.9253 21.9705C38.2177 23.3259 38.3704 25.0519 38.3067 26.2809ZM32.023 33.3023H37.3451H40.36V40.8297C38.2757 42.9713 35.3124 44.3177 32.023 44.3177C25.7141 44.3177 20.6 39.3838 20.6 33.3023C20.6 27.2207 25.7141 22.2958 32.023 22.2958V30.5732C30.3811 30.5732 28.7392 31.1697 27.4872 32.3805C27.1891 32.6697 26.9277 32.977 26.7009 33.3023C25.0177 35.706 25.2792 39.0043 27.4872 41.1279C28.7392 42.3387 30.3811 42.9352 32.023 42.9352C33.6574 42.9352 35.2918 42.3387 36.5429 41.1459C36.5486 41.1369 36.5551 41.1279 36.5617 41.1279C36.5645 41.1233 36.5673 41.1211 36.5701 41.1188C36.5729 41.1166 36.5757 41.1143 36.5785 41.1098C37.8325 39.8989 37.8325 37.938 36.5785 36.7361C35.3237 35.5252 33.29 35.5252 32.0361 36.7361C32.0338 36.7361 32.0317 36.7384 32.0296 36.7407C32.0275 36.7429 32.0254 36.7452 32.023 36.7452V33.3023Z" fill="#0079C2"/>
</g>
<defs>
<filter id="filter0_d" x="0" y="0" width="62" height="62" filterUnits="userSpaceOnUse" color-interpolation-filters="sRGB">
<feFlood flood-opacity="0" result="BackgroundImageFix"/>
<feColorMatrix in="SourceAlpha" type="matrix" values="0 0 0 0 0 0 0 0 0 0 0 0 0 0 0 0 0 0 127 0"/>
<feOffset/>
<feGaussianBlur stdDeviation="2.5"/>
<feColorMatrix type="matrix" values="0 0 0 0 0 0 0 0 0 0 0 0 0 0 0 0 0 0 0.25 0"/>
<feBlend mode="normal" in2="BackgroundImageFix" result="effect1_dropShadow"/>
<feBlend mode="normal" in="SourceGraphic" in2="effect1_dropShadow" result="shape"/>
</filter>
</defs>
</svg>
