<svg width="95" height="95" viewBox="0 0 95 95" fill="none" xmlns="http://www.w3.org/2000/svg">
<path d="M20.481 94.9999C28.385 94.9999 35.244 90.4927 38.6588 83.9208C39.4209 83.9525 40.1756 83.9746 40.9082 83.9746C41.2734 83.9746 41.6291 83.9746 42.0207 83.9651C42.405 83.9556 42.7881 83.9461 43.1628 83.9208C43.3254 83.9197 43.4858 83.9124 43.6811 83.9029C43.7181 83.9029 43.755 83.9018 43.792 83.8986L44.9108 83.8184C45.2022 83.8005 45.4777 83.7751 45.8281 83.7435C55.7958 82.8061 62.3656 79.3143 62.7171 74.8156C62.7361 74.7068 63.1118 72.6675 63.1118 70.512C63.1118 68.802 62.8775 67.1448 62.7614 66.4608C63.0475 64.6695 63.1118 63.2836 63.1118 62.4339C63.1118 61.5947 63.0485 60.2298 62.7635 58.4164C63.0475 56.6283 63.1118 55.2444 63.1118 54.3968C63.1118 52.6583 62.8722 51.0159 62.7698 50.391C62.8796 49.7207 63.1097 48.111 63.1097 46.4168C63.1097 44.6825 62.868 43.0411 62.7625 42.4004C62.868 41.7607 63.1097 40.1183 63.1097 38.384C63.1097 36.5399 62.8363 34.7919 62.7435 34.2526C62.6527 28.106 51.4521 24.7905 40.9082 24.7905C30.3325 24.7905 19.0961 28.125 19.0697 34.3053C18.9694 34.9017 18.7151 36.5896 18.7151 38.3735C18.7151 40.1088 18.9557 41.7502 19.0613 42.3899C18.9557 43.0295 18.7151 44.6709 18.7151 46.4063C18.7151 48.1268 18.9526 49.7566 19.0592 50.4079C18.9568 51.019 18.7383 52.5179 18.7151 54.1234C8.24708 55.0238 3.63662e-07 63.8187 3.63662e-07 74.5168C-0.00211075 85.8113 9.18758 94.9999 20.481 94.9999ZM54.5777 56.2863C54.3307 55.4482 53.4493 54.97 52.6122 55.2149C49.2302 56.2124 45.1832 56.7391 40.9092 56.7391C34.0555 56.7391 27.6947 55.3352 24.3085 53.0774C24.3053 53.0753 24.3011 53.0721 24.2968 53.07C23.3933 52.462 22.3282 51.5173 22.2469 50.4237C22.2469 50.4153 22.2448 50.4068 22.2448 50.3994C22.2448 50.3984 22.2448 50.3973 22.2448 50.3963V50.3709C22.2448 50.3171 22.2343 50.2664 22.229 50.2147C22.2258 50.1873 22.2269 50.1598 22.2216 50.1324C22.2216 50.1324 22.2185 50.1165 22.2185 50.1134C22.2132 50.0828 22.21 50.0532 22.2026 50.0226C22.1435 49.6764 21.9598 48.5163 21.8997 47.2053C22.0833 47.3468 22.2554 47.4871 22.4623 47.6275C22.7346 47.8112 23.0428 47.8988 23.349 47.8988C23.8556 47.8988 24.3549 47.655 24.661 47.2021C25.1518 46.478 24.9608 45.4932 24.2377 45.0034C23.5105 44.5126 22.3008 43.5299 22.2469 42.43C22.2469 42.4162 22.2459 42.4025 22.2459 42.3888C22.2459 42.3307 22.2374 42.2759 22.2322 42.2189C22.2279 42.1787 22.2301 42.1386 22.2216 42.0975C22.2185 42.0816 21.9757 40.7485 21.9018 39.2042C25.9097 42.2537 33.5657 43.8613 40.9061 43.8613C48.2517 43.8613 55.914 42.2516 59.9198 39.1968C59.847 40.7474 59.6011 42.0911 59.5979 42.1059C59.5937 42.126 59.5958 42.145 59.5926 42.165C59.5884 42.202 59.5852 42.2326 59.5821 42.2685C59.5789 42.3107 59.5726 42.3508 59.5726 42.3941C59.5536 43.2311 58.8273 44.1695 57.5163 45.0425C54.1417 47.3088 47.7767 48.7169 40.9071 48.7169C36.1339 48.7169 31.5559 48.0403 28.0187 46.8116C27.1912 46.5224 26.2887 46.9615 26.0037 47.788C25.7176 48.6145 26.1546 49.5159 26.9801 49.803C30.8424 51.1447 35.7898 51.8835 40.9071 51.8835C48.485 51.8835 55.3545 50.3087 59.2759 47.675C59.5124 47.5178 59.714 47.3584 59.9209 47.199C59.8618 48.4994 59.6813 49.651 59.619 50.012C59.6095 50.0522 59.6042 50.0933 59.5979 50.1345V50.1377C59.5968 50.1419 59.5979 50.1461 59.5968 50.1503C59.5863 50.2242 59.5747 50.2981 59.5747 50.3752C59.5747 50.3815 59.5768 50.3878 59.5768 50.3942C59.5768 50.3994 59.5747 50.4047 59.5747 50.411C59.563 51.2418 58.8294 52.1865 57.5111 53.07C57.264 53.2357 56.998 53.3972 56.7162 53.5534C55.953 53.9799 55.6797 54.9447 56.1061 55.7078C56.3953 56.2272 56.9347 56.5206 57.4899 56.5206C57.7517 56.5206 58.0167 56.4552 58.2605 56.3201C58.6025 56.129 58.9244 55.9306 59.2295 55.7279C59.2675 55.7047 59.3034 55.6793 59.3382 55.6529C59.5483 55.5104 59.733 55.3658 59.9198 55.2223C59.8861 55.9453 59.8037 56.8869 59.6116 58.0765C59.6116 58.0776 59.6116 58.0786 59.6116 58.0786C59.5884 58.1863 59.5747 58.2982 59.5747 58.4122C59.5747 58.4175 59.5757 58.4227 59.5768 58.428C59.5588 59.2492 58.8622 60.1697 57.606 61.0289C57.5723 61.0479 57.5395 61.069 57.5058 61.0901C54.1406 63.3511 47.7809 64.755 40.9061 64.755C40.0458 64.755 39.2298 64.7276 38.4434 64.6875C37.371 62.7357 35.9787 60.992 34.3553 59.492C36.4379 59.7601 38.6398 59.9047 40.9071 59.9047C45.4798 59.9047 49.8361 59.3326 53.5052 58.2517C54.3454 58.0058 54.8247 57.1255 54.5777 56.2863ZM45.4661 80.5958C45.218 80.619 44.9752 80.6412 44.6976 80.6591L43.6083 80.7362C43.5819 80.7362 43.5059 80.7393 43.4795 80.7404C43.317 80.7488 43.1628 80.7478 42.9918 80.7584C42.6488 80.7826 42.2973 80.79 41.9131 80.7995C41.5869 80.808 41.2702 80.808 40.9451 80.808C40.6348 80.8069 40.3002 80.7985 39.9729 80.7921C40.4701 79.251 40.7752 77.6286 40.8923 75.9545C40.8976 75.9545 40.9029 75.9545 40.9082 75.9545C41.7304 75.9545 42.5411 75.9355 43.3391 75.8996C44.2131 75.8595 44.8887 75.1185 44.8486 74.2455C44.8095 73.3715 44.059 72.6928 43.1956 72.7361C42.4356 72.7709 41.6555 72.7825 40.8776 72.7815C40.734 71.0884 40.3814 69.4586 39.8494 67.9069C40.2009 67.9133 40.5461 67.9249 40.9082 67.9249C48.4259 67.9249 55.2395 66.3806 59.1736 63.7892C59.2042 63.7723 59.2327 63.7533 59.2612 63.7343C59.2791 63.7227 59.2971 63.709 59.315 63.6963C59.5367 63.5464 59.7277 63.3955 59.923 63.2456C59.8892 63.9686 59.8079 64.9134 59.6137 66.1072C59.5905 66.2191 59.5768 66.3341 59.5768 66.4429C59.5768 66.4492 59.5789 66.4555 59.5789 66.4619C59.5451 67.5945 58.2763 68.6068 57.5216 69.1103C57.4963 69.1271 57.4699 69.1451 57.4467 69.1641C57.4445 69.1651 57.4424 69.1662 57.4393 69.1683C55.3799 70.5247 52.1319 71.6098 48.2929 72.2231C47.4305 72.3603 46.8415 73.1731 46.9797 74.0365C47.1043 74.8156 47.7777 75.3697 48.5409 75.3697C48.6243 75.3697 48.7077 75.3634 48.7932 75.3497C53.1263 74.6572 56.7183 73.4338 59.1619 71.8252C59.2021 71.7998 59.2527 71.766 59.3023 71.728C59.5324 71.5739 59.7267 71.4177 59.9283 71.2625C59.8597 72.8417 59.6063 74.2234 59.6042 74.2392C59.5916 74.3078 59.5905 74.3764 59.5873 74.444C59.5863 74.4588 59.5821 74.4714 59.5821 74.4862C59.5113 76.8443 54.2378 79.7714 45.4661 80.5958ZM40.9071 27.9572C52.4412 27.9572 59.5335 31.6443 59.5768 34.3022C59.5757 34.3233 59.5747 34.3444 59.5747 34.3666C59.5071 37.0234 52.4211 40.6967 40.9082 40.6967C29.429 40.6967 22.3546 37.0456 22.2448 34.3908C22.2459 34.3518 22.2459 34.3127 22.2438 34.2737C22.3367 31.6179 29.4152 27.9572 40.9071 27.9572ZM20.481 57.2004C30.0296 57.2004 37.7974 64.9683 37.7974 74.5168C37.7974 84.0654 30.0296 91.8333 20.481 91.8333C10.9335 91.8333 3.16562 84.0654 3.16562 74.5168C3.16562 64.9683 10.9335 57.2004 20.481 57.2004Z" fill="#FF809F"/>
<path d="M19.9596 74.1598V82.2857H17V65H22.6036C23.6822 65 24.6293 65.1943 25.4448 65.5828C26.267 65.9714 26.8984 66.525 27.339 67.2438C27.7797 67.9561 28 68.7688 28 69.6819C28 71.0677 27.5166 72.1621 26.5498 72.9651C25.5895 73.7616 24.2577 74.1598 22.5543 74.1598H19.9596ZM19.9596 71.7995H22.6036C23.3862 71.7995 23.9815 71.6181 24.3892 71.2555C24.8036 70.8929 25.0108 70.3748 25.0108 69.7013C25.0108 69.0084 24.8036 68.4483 24.3892 68.0209C23.9749 67.5935 23.4027 67.3733 22.6726 67.3604H19.9596V71.7995Z" fill="#482AA4"/>
<rect x="18.5714" y="76" width="6.28571" height="2.35714" fill="#482AA4"/>
<path d="M1.824 42.2533H12.7712C13.6452 42.2533 14.3545 41.5451 14.3545 40.67C14.3545 39.7949 13.6452 39.0867 12.7712 39.0867H1.824C0.949997 39.0867 0.240662 39.7949 0.240662 40.67C0.240662 41.5451 0.949997 42.2533 1.824 42.2533Z" fill="#482AA4"/>
<path d="M67.465 40.67C67.465 41.5451 68.1743 42.2533 69.0483 42.2533H79.9955C80.8695 42.2533 81.5788 41.5451 81.5788 40.67C81.5788 39.7949 80.8695 39.0867 79.9955 39.0867H69.0483C68.1743 39.0867 67.465 39.7949 67.465 40.67Z" fill="#482AA4"/>
<path d="M12.1526 11.9117C11.5341 12.5292 11.5341 13.532 12.1526 14.1505L19.893 21.8909C20.2023 22.2002 20.6077 22.3543 21.013 22.3543C21.4183 22.3543 21.8237 22.2002 22.1329 21.8909C22.7515 21.2734 22.7515 20.2706 22.1329 19.6521L14.3925 11.9117C13.7729 11.2931 12.7712 11.2931 12.1526 11.9117Z" fill="#482AA4"/>
<path d="M39.327 1.58334V12.5305C39.327 13.4056 40.0364 14.1139 40.9104 14.1139C41.7844 14.1139 42.4937 13.4056 42.4937 12.5305V1.58334C42.4937 0.70828 41.7844 0 40.9104 0C40.0364 0 39.327 0.70828 39.327 1.58334Z" fill="#482AA4"/>
<path d="M69.6668 11.9117C69.0482 11.2931 68.0465 11.2931 67.428 11.9117L59.6876 19.6521C59.069 20.2706 59.069 21.2734 59.6876 21.8909C59.9968 22.2002 60.4022 22.3543 60.8075 22.3543C61.2128 22.3543 61.6182 22.2002 61.9274 21.8909L69.6679 14.1505C70.2854 13.532 70.2854 12.5302 69.6668 11.9117Z" fill="#482AA4"/>
</svg>
