<svg width="95" height="95" viewBox="0 0 95 95" fill="none" xmlns="http://www.w3.org/2000/svg">
<path d="M44.5 27.3064C27.3863 27.3064 11.8733 35.3784 0.496526 48.3335C0.176338 48.7034 0 49.1772 0 49.6675C0 50.1577 0.176338 50.6315 0.496526 51.0015C2.75168 53.5682 5.16518 56.1272 7.79883 58.3386C8.00421 58.5105 8.24133 58.64 8.4966 58.7197C8.75187 58.7994 9.02028 58.8277 9.28644 58.8029C9.55261 58.7782 9.8113 58.7009 10.0477 58.5755C10.2841 58.4502 10.4935 58.2791 10.6641 58.0723C10.8346 57.8655 10.9628 57.6269 11.0413 57.3702C11.1199 57.1134 11.1473 56.8437 11.1219 56.5763C11.0966 56.309 11.019 56.0492 10.8935 55.812C10.7681 55.5749 10.5973 55.3649 10.391 55.1941C8.44884 53.5634 6.62778 51.6123 4.82733 49.6357C12.1622 41.7473 21.0844 36.05 30.9386 33.2778C26.2627 37.2014 23.2886 43.1141 23.2886 49.6992C23.2886 56.3166 26.2864 62.2099 31.0018 66.1207C26.1764 64.7953 21.5562 62.7937 17.2507 60.1492C17.0244 59.999 16.7703 59.8961 16.5036 59.8466C16.2369 59.7971 15.963 59.8019 15.6982 59.8608C15.4333 59.9198 15.183 60.0316 14.9621 60.1897C14.7412 60.3478 14.5541 60.5489 14.4121 60.7811C14.2701 61.0133 14.1759 61.2718 14.1353 61.5412C14.0947 61.8107 14.1084 62.0856 14.1756 62.3497C14.2429 62.6137 14.3622 62.8614 14.5266 63.0782C14.6911 63.2949 14.8972 63.4762 15.1327 63.6113C23.909 69.0021 33.9198 72.0285 44.5 72.0285C61.6067 72.0285 77.1269 63.9497 88.5035 51.0015C88.8237 50.6315 89 50.1577 89 49.6675C89 49.1772 88.8237 48.7034 88.5035 48.3335C77.1267 35.3784 61.6137 27.3064 44.5 27.3064ZM44.5 32.3567C54.0215 32.3567 61.6651 40.1322 61.6651 49.6992C61.6651 59.2663 54.0215 66.9465 44.5 66.9465C34.9785 66.9465 27.3032 59.2663 27.3032 49.6992C27.3032 40.1322 34.9785 32.3567 44.5 32.3567ZM58.0614 33.2778C67.9155 36.057 76.8365 41.7722 84.1727 49.6674C76.8306 57.5622 67.8957 63.3099 58.0298 66.0888C62.7378 62.1777 65.7431 56.3005 65.7431 49.6992C65.7431 43.1141 62.7497 37.2014 58.0614 33.2778Z" fill="#FF809F"/>
<path d="M44.2787 11.0122C43.7758 11.0677 43.3119 11.3105 42.9784 11.6926C42.6449 12.0748 42.4659 12.5686 42.4768 13.0768V21.2081C42.473 21.4774 42.5225 21.7449 42.6225 21.9949C42.7225 22.2448 42.8709 22.4723 43.0591 22.6642C43.2474 22.856 43.4717 23.0083 43.719 23.1123C43.9664 23.2163 44.2318 23.2698 44.4999 23.2698C44.768 23.2698 45.0335 23.2163 45.2808 23.1123C45.5282 23.0083 45.7525 22.856 45.9407 22.6642C46.129 22.4723 46.2774 22.2448 46.3774 21.9949C46.4773 21.7449 46.5269 21.4774 46.5231 21.2081V13.0768C46.5293 12.7874 46.4739 12.5 46.3607 12.2339C46.2474 11.9677 46.079 11.7289 45.8665 11.5335C45.654 11.338 45.4024 11.1904 45.1286 11.1005C44.8548 11.0106 44.565 10.9805 44.2787 11.0122ZM21.9608 15.0779C21.6286 15.1206 21.3122 15.2456 21.0399 15.4415C20.7676 15.6374 20.5479 15.8982 20.4007 16.2004C20.2534 16.5027 20.1831 16.8369 20.1961 17.1732C20.2091 17.5095 20.3049 17.8372 20.475 18.1271L24.5213 25.242C24.652 25.4758 24.8272 25.6813 25.037 25.847C25.2468 26.0127 25.487 26.1353 25.744 26.2077C26.0009 26.28 26.2695 26.3008 26.5344 26.2689C26.7994 26.2369 27.0555 26.1528 27.288 26.0214C27.5206 25.8899 27.7251 25.7137 27.8899 25.5028C28.0547 25.2919 28.1765 25.0504 28.2483 24.7922C28.3202 24.534 28.3407 24.2641 28.3087 23.9979C28.2767 23.7318 28.1928 23.4745 28.0619 23.2409L24.0156 16.126C23.8199 15.762 23.5183 15.4666 23.1512 15.2793C22.784 15.092 22.3688 15.0218 21.9608 15.0779ZM66.5649 15.0779C66.2363 15.1098 65.9205 15.222 65.645 15.4047C65.3695 15.5874 65.1427 15.835 64.9843 16.126L60.938 23.2409C60.8072 23.4745 60.7235 23.7316 60.6916 23.9977C60.6597 24.2638 60.6803 24.5337 60.7523 24.7918C60.8242 25.0499 60.946 25.2912 61.1107 25.502C61.2755 25.7128 61.4799 25.8889 61.7124 26.0203C61.9449 26.1517 62.2009 26.2358 62.4657 26.2678C62.7305 26.2998 62.999 26.2791 63.2559 26.2068C63.5128 26.1345 63.7529 26.0121 63.9627 25.8466C64.1725 25.681 64.3478 25.4756 64.4785 25.242L68.5248 18.1271C68.7141 17.8024 68.81 17.4314 68.8018 17.0552C68.7937 16.6791 68.6818 16.3126 68.4787 15.9965C68.2755 15.6804 67.989 15.4272 67.6512 15.2651C67.3133 15.1029 66.9372 15.0381 66.5649 15.0779ZM44.4999 41.5363C40.0545 41.5363 36.4073 45.2008 36.4073 49.6675C36.4073 54.1343 40.0545 57.7989 44.4999 57.7989C48.9454 57.7989 52.5925 54.1343 52.5925 49.6675C52.5925 45.2008 48.9454 41.5363 44.4999 41.5363ZM44.4999 45.6019C46.7586 45.6019 48.5462 47.3981 48.5462 49.6675C48.5462 51.9371 46.7586 53.7332 44.4999 53.7332C42.2413 53.7332 40.4536 51.9371 40.4536 49.6675C40.4536 47.3981 42.2413 45.6019 44.4999 45.6019Z" fill="#482AA4"/>
</svg>
