<svg width="95" height="95" viewBox="0 0 95 95" fill="none" xmlns="http://www.w3.org/2000/svg">
<path d="M40.1902 19.9211C38.604 19.9211 37.3198 21.2053 37.3198 22.7915V42.2517C35.6096 43.2467 34.4494 45.0776 34.4494 47.1979C34.4494 50.3702 37.021 52.9418 40.1934 52.9418C40.7051 52.9418 41.1883 52.856 41.6619 52.7288L52.5205 63.5874C53.0863 64.15 53.8174 64.4298 54.5549 64.4298C55.2924 64.4298 56.0235 64.15 56.5797 63.5874C57.7018 62.4621 57.7018 60.6471 56.5797 59.5282L45.7275 48.676C45.8547 48.2023 45.9405 47.7128 45.9405 47.201C45.9405 45.0776 44.7771 43.2435 43.0638 42.2486V22.7947C43.0606 21.2085 41.7764 19.9211 40.1902 19.9211Z" fill="#482AA4"/>
<path d="M88.8249 46.0635C88.577 45.5994 88.0938 45.3069 87.563 45.3069H80.2678C79.7878 35.4115 75.7127 25.8944 68.5987 18.774C61.0047 11.18 50.9154 7 40.1776 7C29.443 7 19.3474 11.18 11.7534 18.774C-3.91779 34.442 -3.91779 59.945 11.7534 75.6193C19.3474 83.2133 29.4398 87.3965 40.1776 87.3965C50.9154 87.3965 61.0047 83.2133 68.5987 75.6193C69.7239 74.494 69.7239 72.6758 68.5987 71.5601C67.4734 70.4348 65.6615 70.4348 64.5394 71.5601C58.0325 78.0701 49.38 81.6526 40.1776 81.6526C30.9752 81.6526 22.3227 78.0669 15.8126 71.5601C2.37928 58.1172 2.3761 36.2634 15.8126 22.8333C22.3195 16.3264 30.9752 12.744 40.1776 12.744C49.38 12.744 58.0325 16.3264 64.5394 22.8333C70.5726 28.8665 74.0629 36.9214 74.5397 45.3069H66.453C65.9222 45.3069 65.439 45.5962 65.1847 46.0635C64.9368 46.5307 64.9685 47.0997 65.2578 47.5384L75.8176 63.378C76.0782 63.7754 76.5296 64.0169 77.0096 64.0169C77.4864 64.0169 77.9346 63.7754 78.2016 63.378L88.755 47.5384C89.057 47.0965 89.0792 46.5307 88.8249 46.0635Z" fill="#FF809F"/>
</svg>
